<?xml version="1.0" encoding="utf-8"?>
<!-- Generator: Adobe Illustrator 16.0.0, SVG Export Plug-In . SVG Version: 6.00 Build 0)  -->
<!DOCTYPE svg PUBLIC "-//W3C//DTD SVG 1.1//EN" "http://www.w3.org/Graphics/SVG/1.1/DTD/svg11.dtd">
<svg version="1.1" id="Layer_1" xmlns="http://www.w3.org/2000/svg" xmlns:xlink="http://www.w3.org/1999/xlink" x="0px" y="0px"
	 width="135px" height="135px" viewBox="0 0 135 135" style="enable-background:new 0 0 135 135;" xml:space="preserve">
<style type="text/css">
<![CDATA[
	.st0{fill:#465652;}
	.st1{fill:#AAB9BA;}
	.st2{fill:#47C67B;}
	.st3{fill:#AAC8D1;}
	.st4{fill:none;stroke:#E83834;stroke-width:6;stroke-linecap:round;stroke-linejoin:round;stroke-miterlimit:10;}
	.st5{fill:#7BC67B;}
	.st6{fill:#7BC7FF;}
	.st7{fill:#7C34C1;}
	.st8{fill:#7C8D96;}
	.st9{fill:#AD2707;}
	.st10{fill:#ADB8BC;}
	.st11{fill:#107510;}
	.st12{fill:#7FE5D8;}
	.st13{fill:#AF4AD1;}
	.st14{fill:#E02B7E;}
	.st15{fill:#E04038;}
	.st16{fill:#AFD7DD;}
	.st17{fill:#E0A010;}
	.st18{fill:#E0D5A4;}
	.st19{fill:#12B2B2;}
	.st20{fill:#12D66B;}
	.st21{fill:#E1A9FF;}
	.st22{fill:#1362A8;}
	.st23{fill:#E2378D;}
	.st24{fill:#E29C37;}
	.st25{fill:#E2B90E;}
	.st26{fill:#E2BF91;}
	.st27{fill:#E2CBAA;}
	.st28{fill:#14A594;}
	.st29{fill:#E4E9ED;}
	.st30{fill:#4A5D60;}
	.st31{fill:#E5B076;}
	.st32{fill:#E5B1C4;}
	.st33{fill:#E5E4C3;}
	.st34{fill:#4B6466;}
	.st35{fill:#E6FF2E;}
	.st36{fill:#18AA67;}
	.st37{fill:#E86207;}
	.st38{fill:#E8A113;}
	.st39{fill:#E8B5A6;}
	.st40{fill:#E8E8ED;}
	.st41{fill:#4E5154;}
	.st42{fill:#E9F1F4;}
	.st43{fill:#4F4B48;}
	.st44{fill:#4F74E8;}
	.st45{fill:#808E93;}
	.st46{fill:#80949B;}
	.st47{fill:#80EDAC;}
	.st48{fill:#B122E0;}
	.st49{fill:#B2C4CC;}
	.st50{fill:#83D839;}
	.st51{fill:#B3C6C6;}
	.st52{fill:none;stroke:#33363A;stroke-width:3;stroke-linecap:round;stroke-linejoin:round;stroke-miterlimit:10;}
	.st53{fill:#1A8E1C;}
	.st54{fill:#1A93D6;}
	.st55{fill:#B50B0B;}
	.st56{fill:#1AD88F;}
	.st57{fill:#B5DAF4;}
	.st58{fill:#EA7B1F;}
	.st59{fill:#EA81BD;}
	.st60{fill:#87B8D6;}
	.st61{fill:#87C3F4;}
	.st62{fill:#EAC79D;}
	.st63{fill:#EADF11;}
	.st64{fill:#EAE4C5;}
	.st65{fill:#B78094;}
	.st66{fill:#8844D8;}
	.st67{fill:#EBF4F7;}
	.st68{fill:#893015;}
	.st69{fill:#89410B;}
	.st70{fill:#899BA3;}
	.st71{fill:#EDE3B9;}
	.st72{enable-background:new    ;}
	.st73{fill:#50FF9F;}
	.st74{fill:#EEDCF4;}
	.st75{fill:#EFA37D;}
	.st76{fill:#EFA3CC;}
	.st77{fill:#EFC99A;}
	.st78{fill:#54AF79;}
	.st79{fill:#BA503A;}
	.st80{fill:#BA8663;}
	.st81{fill:#8B4FE0;}
	.st82{fill:#58ED9B;}
	.st83{fill:#BC7DFF;}
	.st84{fill:#8D9AA3;}
	.st85{fill:#BCCAD3;}
	.st86{fill:#8DE4FF;}
	.st87{fill:#20B518;}
	.st88{fill:#BF44F2;}
	.st89{fill:#21CEA1;}
	.st90{fill:#BFDAE0;}
	.st91{fill:#F0FBFC;}
	.st92{fill:#F2D9A7;}
	.st93{fill:#F2EAC9;}
	.st94{fill:#24D1AF;}
	.st95{fill:#25931C;}
	.st96{fill:#F4C4B3;}
	.st97{fill:#F4D3A2;}
	.st98{fill:#F4D647;}
	.st99{fill:#F4D7B8;}
	.st100{fill:#F4EC8E;}
	.st101{fill:#5B524D;}
	.st102{fill:#F77819;}
	.st103{fill:#F79AE1;}
	.st104{fill:#5E707A;}
	.st105{fill:#F93585;}
	.st106{fill:#F95D5D;}
	.st107{fill:#F9C19B;}
	.st108{fill:#F9CB58;}
	.st109{fill:#F9D2B2;}
	.st110{fill:#F9F07D;}
	.st111{fill:#F9F1D2;}
	.st112{fill:#F9F4B7;}
	.st113{fill:#F9F9E4;}
	.st114{fill:#5F1DAA;}
	.st115{fill:#5F9AD6;}
	.st116{fill:#C0C0C4;}
	.st117{fill:#91EA57;}
	.st118{fill:#C12727;}
	.st119{fill:#C191A0;}
	.st120{fill:#923BB7;}
	.st121{fill:#93A0A3;}
	.st122{fill:#93F9EA;}
	.st123{fill:#93FF5A;}
	.st124{fill:#C4833D;}
	.st125{fill:#95A2A5;}
	.st126{fill:#965514;}
	.st127{fill:#96562C;}
	.st128{fill:#2AF42F;}
	.st129{fill:#C5D7DD;}
	.st130{fill:#C68510;}
	.st131{fill:#C6A86D;}
	.st132{fill:#C6BB8D;}
	.st133{fill:#2C9DCE;}
	.st134{fill:#FBFCF2;}
	.st135{fill:#FC70B0;}
	.st136{fill:#FCE6C8;}
	.st137{fill:#FCF7E3;}
	.st138{fill:#C90D6B;}
	.st139{fill:#FDFEFF;}
	.st140{fill:#FDFFDC;}
	.st141{fill:#FF1A1A;}
	.st142{fill:#FF5252;}
	.st143{fill:#FF5B00;}
	.st144{fill:#FF6155;}
	.st145{fill:#FF630D;}
	.st146{fill:#FF6666;}
	.st147{fill:#FF7676;}
	.st148{fill:#FF7900;}
	.st149{fill:#FF860D;}
	.st150{fill:#FF8B00;}
	.st151{fill:#FF8F8F;}
	.st152{fill:#FF900B;}
	.st153{fill:#FF908A;}
	.st154{fill:#FF960B;}
	.st155{fill:#FF9C0D;}
	.st156{fill:#FFA9D4;}
	.st157{fill:#FFAA00;}
	.st158{fill:#FFAD40;}
	.st159{fill:#FFAF10;}
	.st160{fill:#FFB000;}
	.st161{fill:#FFBE08;}
	.st162{fill:#FFBF31;}
	.st163{fill:#FFC200;}
	.st164{fill:#FFCAE8;}
	.st165{fill:#FFCCF5;}
	.st166{fill:#FFD00B;}
	.st167{fill:#FFD039;}
	.st168{fill:#FFD400;}
	.st169{fill:#FFD833;}
	.st170{fill:#FFDB80;}
	.st171{fill:#FFDDD2;}
	.st172{fill:#FFE6D4;}
	.st173{fill:#FFE6EB;}
	.st174{fill:#FFE98D;}
	.st175{fill:#FFECD2;}
	.st176{fill:#FFF1D9;}
	.st177{fill:#FFF24D;}
	.st178{fill:#FFF3C2;}
	.st179{fill:#FFF4C7;}
	.st180{fill:#FFF800;}
	.st181{fill:#FFF80D;}
	.st182{fill:#FFF9DE;}
	.st183{fill:#FFFBD7;}
	.st184{fill:#FFFBEB;}
	.st185{fill:#FFFCC0;}
	.st186{fill:#FFFCDC;}
	.st187{fill:#FFFFFA;}
	.st188{fill:#FFFFFF;}
	.st189{fill:#63797F;}
	.st190{fill:#65E529;}
	.st191{fill:#66310E;}
	.st192{fill:#663C17;}
	.st193{fill:#9A5AE5;}
	.st194{fill:#CA30EF;}
	.st195{fill:#6892FC;}
	.st196{fill:#9CFFC4;}
	.st197{fill:#CC4306;}
	.st198{fill:#CC549E;}
	.st199{fill:#9E3256;}
	.st200{fill:#CDFFBB;}
	.st201{fill:#CE86AF;}
	.st202{fill:#CED9DD;}
	
		.st203{fill:none;stroke:#33363A;stroke-width:3;stroke-linecap:round;stroke-linejoin:round;stroke-miterlimit:10;stroke-dasharray:6;}
	.st204{fill:#CFE1E2;}
	.st205{fill:#33363A;}
	.st206{fill:#34C166;}
	.st207{fill:#364B5B;}
	.st208{fill:#3662CE;}
	.st209{fill:#36C6FF;}
	.st210{fill:#6ADB9A;}
	.st211{fill:#6D5C4D;}
	.st212{fill:#6EBDF9;}
	.st213{fill:#0031FF;}
	.st214{fill:#0062FF;}
	.st215{fill:#0068FF;}
	.st216{fill:#0086FF;}
	.st217{fill:#009BE8;}
	.st218{fill:#00AAFF;}
	.st219{fill:#D271FF;}
	.st220{fill:#D363A9;}
	.st221{fill:#D3964C;}
	.st222{fill:#D3DFE2;}
	.st223{fill:#D3E0E2;}
	.st224{fill:#D3EFF4;}
	.st225{fill:#063B66;}
	.st226{fill:#D60909;}
	.st227{fill:#D61D1D;}
	.st228{fill:#D7F0FF;}
	.st229{fill:#09B285;}
	.st230{fill:#D8D593;}
	.st231{fill:#D8E2EA;}
	.st232{fill:#D8E5EA;}
	.st233{fill:#3E5054;}
	.st234{fill:#D988FF;}
	.st235{fill:#D9E7E8;}
	.st236{fill:#702252;}
	.st237{fill:#70D3E0;}
	.st238{fill:#A02FF2;}
	.st239{fill:#A2F255;}
	.st240{fill:#A35616;}
	.st241{fill:#A3CCCC;}
	.st242{fill:#0A6ADD;}
	.st243{fill:#A5145D;}
	.st244{fill:#A57555;}
	.st245{fill:#77D6FC;}
	.st246{fill:#7815CE;}
	.st247{fill:#A7BBC1;}
	.st248{fill:#DBD279;}
	.st249{fill:#0D5C9E;}
	.st250{fill:#A83C11;}
	.st251{fill:#A8633D;}
	.st252{fill:#A8A3E5;}
	.st253{fill:#DCE6EA;}
	.st254{fill:#DCE7EA;}
	.st255{fill:#A962E8;}
	.st256{fill:#DD2466;}
	.st257{fill:#DDC38A;}
	.st258{fill:#DDD2B1;}
	.st259{fill:#DFE7E8;}
	.st260{fill:#42B1E8;}
	.st261{fill:#436377;}
	.st262{fill:#43B530;}
]]>
</style>
<g>
	<g>
		<g>
			<g>
				<g>
					<g>
						<path class="st239" d="M118.574,80.13c0,21.461-22.866,38.861-51.073,38.861c-28.209,0-51.074-17.4-51.074-38.861
							c0-21.463,22.865-47.182,51.074-47.182C95.708,32.948,118.574,58.667,118.574,80.13z"/>
					</g>
					<g>
						<path class="st50" d="M118.574,80.13c0,21.461-22.866,38.861-51.073,38.861c-28.209,0-51.074-17.4-51.074-38.861
							c0-21.463,22.865-36.25,51.074-36.25C95.708,43.88,118.574,58.667,118.574,80.13z"/>
					</g>
					<g>
						<path class="st239" d="M78.376,85.151c0,1.445-4.869,1.705-10.875,1.705s-10.875-0.26-10.875-1.705
							c0-1.447,4.869-5.229,10.875-5.229S78.376,83.704,78.376,85.151z"/>
					</g>
					<g>
						<path class="st87" d="M118.574,80.13c0,21.461-22.866,38.861-51.073,38.861c-28.209,0-51.074-17.4-51.074-38.861
							c0-21.465,6.498,19.035,51.074,19.035C112.075,99.165,118.574,58.665,118.574,80.13z"/>
					</g>
					<g>
						<path class="st205" d="M67.501,120.491c-28.99,0-52.574-18.106-52.574-40.361c0-22.05,23.452-48.682,52.574-48.682
							c13.52,0,26.72,5.673,37.167,15.974c9.646,9.512,15.406,21.738,15.406,32.708C120.074,102.385,96.49,120.491,67.501,120.491z
							 M67.501,34.448c-27.461,0-49.574,24.99-49.574,45.682c0,20.602,22.239,37.361,49.574,37.361
							c27.335,0,49.573-16.76,49.573-37.361C117.074,59.438,94.961,34.448,67.501,34.448z"/>
					</g>
				</g>
				<g>
					<g>
						<path class="st239" d="M84.349,106.622c0,8.281-7.543,14.994-16.848,14.994c-9.307,0-16.85-6.713-16.85-14.994
							s7.543-18.201,16.85-18.201C76.806,88.421,84.349,98.341,84.349,106.622z"/>
					</g>
					<g>
						<path class="st50" d="M84.349,106.622c0,8.281-7.543,14.994-16.848,14.994c-9.307,0-16.85-6.713-16.85-14.994
							s7.543-13.986,16.85-13.986C76.806,92.636,84.349,98.341,84.349,106.622z"/>
					</g>
					<g>
						<path class="st180" d="M71.088,102.698c0,0.559-1.606,0.66-3.587,0.66c-1.981,0-3.588-0.102-3.588-0.66
							c0-0.557,1.606-2.016,3.588-2.016C69.481,100.683,71.088,102.142,71.088,102.698z"/>
					</g>
					<g>
						<path class="st95" d="M84.349,106.622c0,8.281-7.543,14.994-16.848,14.994c-9.307,0-16.85-6.713-16.85-14.994
							s2.145,7.346,16.85,7.346C82.204,113.968,84.349,98.341,84.349,106.622z"/>
					</g>
					<g>
						<path class="st205" d="M67.501,123.116c-10.118,0-18.35-7.399-18.35-16.494c0-8.924,8.185-19.701,18.35-19.701
							c10.164,0,18.348,10.777,18.348,19.701C85.849,115.717,77.618,123.116,67.501,123.116z M67.501,89.921
							c-6.953,0-15.35,7.45-15.35,16.701c0,7.44,6.886,13.494,15.35,13.494c8.463,0,15.348-6.054,15.348-13.494
							C82.849,97.371,74.453,89.921,67.501,89.921z"/>
					</g>
				</g>
				<g>
					<g>
						<path class="st239" d="M78.366,111.948c0,5.338-4.865,9.668-10.865,9.668c-6.002,0-10.866-4.33-10.866-9.668
							c0-5.344,4.864-11.742,10.866-11.742C73.501,100.206,78.366,106.604,78.366,111.948z"/>
					</g>
					<g>
						<path class="st50" d="M78.366,111.948c0,5.338-4.865,9.668-10.865,9.668c-6.002,0-10.866-4.33-10.866-9.668
							c0-5.344,4.864-9.021,10.866-9.021C73.501,102.927,78.366,106.604,78.366,111.948z"/>
					</g>
					<g>
						<path class="st239" d="M69.813,109.415c0,0.361-1.035,0.426-2.312,0.426c-1.278,0-2.313-0.064-2.313-0.426
							c0-0.359,1.035-1.299,2.313-1.299C68.778,108.116,69.813,109.056,69.813,109.415z"/>
					</g>
					<g>
						<path class="st87" d="M78.366,111.948c0,5.338-4.865,9.668-10.865,9.668c-6.002,0-10.866-4.33-10.866-9.668
							c0-5.344,1.383,4.734,10.866,4.734C76.983,116.683,78.366,106.604,78.366,111.948z"/>
					</g>
					<g>
						<path class="st205" d="M67.501,123.116c-6.819,0-12.366-5.01-12.366-11.168c0-6.124,5.402-13.242,12.366-13.242
							c6.964,0,12.365,7.118,12.365,13.242C79.866,118.106,74.319,123.116,67.501,123.116z M67.501,101.706
							c-5.044,0-9.366,5.632-9.366,10.242c0,4.504,4.202,8.168,9.366,8.168c5.164,0,9.365-3.664,9.365-8.168
							C76.866,107.338,72.545,101.706,67.501,101.706z"/>
					</g>
				</g>
				<g>
					<g>
						<g>
							<g>
								<g>
									<g>
										<path class="st180" d="M53.94,79.052c0,9.934-8.049,17.975-17.977,17.975c-9.926,0-17.973-8.041-17.973-17.975
											c0-9.928,8.047-17.975,17.973-17.975C45.892,61.077,53.94,69.124,53.94,79.052z"/>
									</g>
									<g>
										<path class="st160" d="M53.94,79.052c0,9.934-8.049,3.713-17.977,3.713c-9.926,0-17.973,6.221-17.973-3.713
											c0-9.928,8.047-17.975,17.973-17.975C45.892,61.077,53.94,69.124,53.94,79.052z"/>
									</g>
									<g>
										<path class="st205" d="M35.964,98.526c-10.737,0-19.473-8.736-19.473-19.475s8.735-19.475,19.473-19.475
											c10.739,0,19.477,8.736,19.477,19.475S46.703,98.526,35.964,98.526z M35.964,62.577c-9.083,0-16.473,7.391-16.473,16.475
											s7.39,16.475,16.473,16.475c9.085,0,16.477-7.391,16.477-16.475S45.049,62.577,35.964,62.577z"/>
									</g>
								</g>
							</g>
							<g>
								<g>
									<g>
										<path class="st180" d="M117.009,79.052c0,9.934-8.049,17.975-17.977,17.975c-9.926,0-17.973-8.041-17.973-17.975
											c0-9.928,8.047-17.975,17.973-17.975C108.96,61.077,117.009,69.124,117.009,79.052z"/>
									</g>
									<g>
										<path class="st160" d="M117.009,79.052c0,9.934-8.049,3.713-17.977,3.713c-9.926,0-17.973,6.221-17.973-3.713
											c0-9.928,8.047-17.975,17.973-17.975C108.96,61.077,117.009,69.124,117.009,79.052z"/>
									</g>
									<g>
										<path class="st205" d="M99.032,98.526c-10.737,0-19.473-8.736-19.473-19.475s8.735-19.475,19.473-19.475
											c10.739,0,19.477,8.736,19.477,19.475S109.771,98.526,99.032,98.526z M99.032,62.577c-9.083,0-16.473,7.391-16.473,16.475
											s7.39,16.475,16.473,16.475c9.085,0,16.477-7.391,16.477-16.475S108.118,62.577,99.032,62.577z"/>
									</g>
								</g>
							</g>
						</g>
						<g>
							<g>
								<g>
									<g>
										<path class="st211" d="M46.452,79.052c0,5.795-4.695,10.486-10.488,10.486c-5.789,0-10.484-4.691-10.484-10.486
											c0-5.793,4.695-10.484,10.484-10.484C41.757,68.567,46.452,73.259,46.452,79.052z"/>
									</g>
									<g>
										<path class="st205" d="M46.452,79.052c0,5.795-4.695,2.166-10.488,2.166c-5.789,0-10.484,3.629-10.484-2.166
											c0-5.793,4.695-10.484,10.484-10.484C41.757,68.567,46.452,73.259,46.452,79.052z"/>
									</g>
									<g>
										<path class="st205" d="M35.964,91.038c-6.608,0-11.984-5.377-11.984-11.986c0-6.608,5.376-11.984,11.984-11.984
											c6.61,0,11.988,5.376,11.988,11.984C47.952,85.661,42.574,91.038,35.964,91.038z M35.964,70.067
											c-4.954,0-8.984,4.03-8.984,8.984c0,4.955,4.03,8.986,8.984,8.986c4.956,0,8.988-4.031,8.988-8.986
											C44.952,74.098,40.92,70.067,35.964,70.067z"/>
									</g>
								</g>
								<g>
									<g>
										<circle class="st188" cx="30.75" cy="75.644" r="4.272"/>
									</g>
									<g>
										<path class="st205" d="M30.75,81.415c-3.183,0-5.772-2.589-5.772-5.771s2.589-5.771,5.772-5.771s5.772,2.589,5.772,5.771
											S33.933,81.415,30.75,81.415z M30.75,72.872c-1.529,0-2.772,1.243-2.772,2.771s1.244,2.771,2.772,2.771
											s2.772-1.243,2.772-2.771S32.279,72.872,30.75,72.872z"/>
									</g>
								</g>
							</g>
							<g>
								<g>
									<g>
										<path class="st211" d="M109.521,79.052c0,5.795-4.695,10.486-10.484,10.486c-5.793,0-10.487-4.691-10.487-10.486
											c0-5.793,4.694-10.484,10.487-10.484C104.825,68.567,109.521,73.259,109.521,79.052z"/>
									</g>
									<g>
										<path class="st205" d="M109.521,79.052c0,5.795-4.695,2.166-10.484,2.166c-5.793,0-10.487,3.629-10.487-2.166
											c0-5.793,4.694-10.484,10.487-10.484C104.825,68.567,109.521,73.259,109.521,79.052z"/>
									</g>
									<g>
										<path class="st205" d="M99.036,91.038c-6.61,0-11.987-5.377-11.987-11.986c0-6.608,5.377-11.984,11.987-11.984
											c6.608,0,11.984,5.376,11.984,11.984C111.021,85.661,105.645,91.038,99.036,91.038z M99.036,70.067
											c-4.956,0-8.987,4.03-8.987,8.984c0,4.955,4.032,8.986,8.987,8.986c4.954,0,8.984-4.031,8.984-8.986
											C108.021,74.098,103.99,70.067,99.036,70.067z"/>
									</g>
								</g>
								<g>
									<g>
										<circle class="st188" cx="93.82" cy="75.644" r="4.272"/>
									</g>
									<g>
										<path class="st205" d="M93.819,81.415c-3.183,0-5.771-2.589-5.771-5.771s2.589-5.771,5.771-5.771
											c3.183,0,5.772,2.589,5.772,5.771S97.002,81.415,93.819,81.415z M93.819,72.872c-1.528,0-2.771,1.243-2.771,2.771
											s1.243,2.771,2.771,2.771c1.529,0,2.772-1.243,2.772-2.771S95.348,72.872,93.819,72.872z"/>
									</g>
								</g>
							</g>
						</g>
					</g>
				</g>
			</g>
		</g>
		<g>
			<path class="st59" d="M130.263,18.788c0-17.328-28.098,12.561-62.761,12.561c-34.664,0-62.765-29.889-62.765-12.561
				c0,15.561,22.658,28.471,52.375,30.947c0.916,5.75,5.217,19.908,10.389,19.908c5.17,0,9.471-14.158,10.389-19.908
				C107.606,47.261,130.263,34.351,130.263,18.788z"/>
		</g>
		<g>
			<path class="st198" d="M67.502,40.474c-31.099,0-56.911-24.049-61.892-16.486c4.395,13.164,25.17,23.555,51.502,25.748
				c0.916,5.75,5.217,19.908,10.389,19.908c5.17,0,9.471-14.158,10.389-19.908c26.332-2.193,47.107-12.584,51.501-25.748
				C124.41,16.425,98.601,40.474,67.502,40.474z"/>
		</g>
		<g>
			<path class="st205" d="M67.501,71.144c-6.458,0-10.548-14.504-11.658-20.014C25.289,48.299,3.237,34.792,3.237,18.788
				c0-5.706,2.998-6.903,5.513-6.903c3.608,0,8.894,2.47,15.584,5.597c11.167,5.22,26.461,12.367,43.167,12.367
				c16.707,0,32.001-7.148,43.168-12.368c6.689-3.127,11.973-5.596,15.58-5.596c2.515,0,5.513,1.197,5.513,6.903
				c0,16.006-22.051,29.514-52.604,32.342C78.047,56.64,73.953,71.144,67.501,71.144z M8.75,14.885c-1.001,0-2.513,0-2.513,3.903
				c0,14.367,21.925,27.029,51,29.452c0.688,0.058,1.248,0.577,1.357,1.259c1.168,7.334,5.52,18.645,8.907,18.645
				c3.384,0,7.736-11.311,8.907-18.645c0.109-0.682,0.669-1.201,1.357-1.259c29.073-2.421,50.998-15.083,50.998-29.452
				c0-3.903-1.512-3.903-2.513-3.903c-2.941,0-8.209,2.462-14.31,5.313c-11.421,5.339-27.064,12.65-44.438,12.65
				c-17.372,0-33.015-7.311-44.438-12.649C16.962,17.348,11.692,14.885,8.75,14.885z"/>
		</g>
	</g>
	<g>
		<g>
			<path class="st205" d="M63.116,57.874c-0.829,0-1.5-0.672-1.5-1.5c0-2.908-2.366-5.273-5.273-5.273c-0.829,0-1.5-0.672-1.5-1.5
				s0.671-1.5,1.5-1.5c4.562,0,8.273,3.712,8.273,8.273C64.616,57.202,63.945,57.874,63.116,57.874z"/>
		</g>
		<g>
			<path class="st205" d="M71.886,57.874c-0.829,0-1.5-0.672-1.5-1.5c0-4.562,3.71-8.273,8.271-8.273c0.829,0,1.5,0.672,1.5,1.5
				s-0.671,1.5-1.5,1.5c-2.907,0-5.271,2.365-5.271,5.273C73.386,57.202,72.714,57.874,71.886,57.874z"/>
		</g>
	</g>
</g>
</svg>
