<?xml version="1.0" encoding="utf-8"?>
<!-- Generator: Adobe Illustrator 16.0.0, SVG Export Plug-In . SVG Version: 6.00 Build 0)  -->
<!DOCTYPE svg PUBLIC "-//W3C//DTD SVG 1.1//EN" "http://www.w3.org/Graphics/SVG/1.1/DTD/svg11.dtd">
<svg version="1.1" id="Layer_1" xmlns="http://www.w3.org/2000/svg" xmlns:xlink="http://www.w3.org/1999/xlink" x="0px" y="0px"
	 width="135px" height="135px" viewBox="0 0 135 135" style="enable-background:new 0 0 135 135;" xml:space="preserve">
<style type="text/css">
<![CDATA[
	.st0{fill:#465652;}
	.st1{fill:#AAB9BA;}
	.st2{fill:#47C67B;}
	.st3{fill:#AAC8D1;}
	.st4{fill:none;stroke:#E83834;stroke-width:6;stroke-linecap:round;stroke-linejoin:round;stroke-miterlimit:10;}
	.st5{fill:#7BC67B;}
	.st6{fill:#7BC7FF;}
	.st7{fill:#7C34C1;}
	.st8{fill:#7C8D96;}
	.st9{fill:#AD2707;}
	.st10{fill:#ADB8BC;}
	.st11{fill:#107510;}
	.st12{fill:#7FE5D8;}
	.st13{fill:#AF4AD1;}
	.st14{fill:#E02B7E;}
	.st15{fill:#E04038;}
	.st16{fill:#AFD7DD;}
	.st17{fill:#E0A010;}
	.st18{fill:#E0D5A4;}
	.st19{fill:#12B2B2;}
	.st20{fill:#12D66B;}
	.st21{fill:#E1A9FF;}
	.st22{fill:#1362A8;}
	.st23{fill:#E2378D;}
	.st24{fill:#E29C37;}
	.st25{fill:#E2B90E;}
	.st26{fill:#E2BF91;}
	.st27{fill:#E2CBAA;}
	.st28{fill:#14A594;}
	.st29{fill:#E4E9ED;}
	.st30{fill:#4A5D60;}
	.st31{fill:#E5B076;}
	.st32{fill:#E5B1C4;}
	.st33{fill:#E5E4C3;}
	.st34{fill:#4B6466;}
	.st35{fill:#E6FF2E;}
	.st36{fill:#18AA67;}
	.st37{fill:#E86207;}
	.st38{fill:#E8A113;}
	.st39{fill:#E8B5A6;}
	.st40{fill:#E8E8ED;}
	.st41{fill:#4E5154;}
	.st42{fill:#E9F1F4;}
	.st43{fill:#4F4B48;}
	.st44{fill:#4F74E8;}
	.st45{fill:#808E93;}
	.st46{fill:#80949B;}
	.st47{fill:#80EDAC;}
	.st48{fill:#B122E0;}
	.st49{fill:#B2C4CC;}
	.st50{fill:#83D839;}
	.st51{fill:#B3C6C6;}
	.st52{fill:none;stroke:#33363A;stroke-width:3;stroke-linecap:round;stroke-linejoin:round;stroke-miterlimit:10;}
	.st53{fill:#1A8E1C;}
	.st54{fill:#1A93D6;}
	.st55{fill:#B50B0B;}
	.st56{fill:#1AD88F;}
	.st57{fill:#B5DAF4;}
	.st58{fill:#EA7B1F;}
	.st59{fill:#EA81BD;}
	.st60{fill:#87B8D6;}
	.st61{fill:#87C3F4;}
	.st62{fill:#EAC79D;}
	.st63{fill:#EADF11;}
	.st64{fill:#EAE4C5;}
	.st65{fill:#B78094;}
	.st66{fill:#8844D8;}
	.st67{fill:#EBF4F7;}
	.st68{fill:#893015;}
	.st69{fill:#89410B;}
	.st70{fill:#899BA3;}
	.st71{fill:#EDE3B9;}
	.st72{enable-background:new    ;}
	.st73{fill:#50FF9F;}
	.st74{fill:#EEDCF4;}
	.st75{fill:#EFA37D;}
	.st76{fill:#EFA3CC;}
	.st77{fill:#EFC99A;}
	.st78{fill:#54AF79;}
	.st79{fill:#BA503A;}
	.st80{fill:#BA8663;}
	.st81{fill:#8B4FE0;}
	.st82{fill:#58ED9B;}
	.st83{fill:#BC7DFF;}
	.st84{fill:#8D9AA3;}
	.st85{fill:#BCCAD3;}
	.st86{fill:#8DE4FF;}
	.st87{fill:#20B518;}
	.st88{fill:#BF44F2;}
	.st89{fill:#21CEA1;}
	.st90{fill:#BFDAE0;}
	.st91{fill:#F0FBFC;}
	.st92{fill:#F2D9A7;}
	.st93{fill:#F2EAC9;}
	.st94{fill:#24D1AF;}
	.st95{fill:#25931C;}
	.st96{fill:#F4C4B3;}
	.st97{fill:#F4D3A2;}
	.st98{fill:#F4D647;}
	.st99{fill:#F4D7B8;}
	.st100{fill:#F4EC8E;}
	.st101{fill:#5B524D;}
	.st102{fill:#F77819;}
	.st103{fill:#F79AE1;}
	.st104{fill:#5E707A;}
	.st105{fill:#F93585;}
	.st106{fill:#F95D5D;}
	.st107{fill:#F9C19B;}
	.st108{fill:#F9CB58;}
	.st109{fill:#F9D2B2;}
	.st110{fill:#F9F07D;}
	.st111{fill:#F9F1D2;}
	.st112{fill:#F9F4B7;}
	.st113{fill:#F9F9E4;}
	.st114{fill:#5F1DAA;}
	.st115{fill:#5F9AD6;}
	.st116{fill:#C0C0C4;}
	.st117{fill:#91EA57;}
	.st118{fill:#C12727;}
	.st119{fill:#C191A0;}
	.st120{fill:#923BB7;}
	.st121{fill:#93A0A3;}
	.st122{fill:#93F9EA;}
	.st123{fill:#93FF5A;}
	.st124{fill:#C4833D;}
	.st125{fill:#95A2A5;}
	.st126{fill:#965514;}
	.st127{fill:#96562C;}
	.st128{fill:#2AF42F;}
	.st129{fill:#C5D7DD;}
	.st130{fill:#C68510;}
	.st131{fill:#C6A86D;}
	.st132{fill:#C6BB8D;}
	.st133{fill:#2C9DCE;}
	.st134{fill:#FBFCF2;}
	.st135{fill:#FC70B0;}
	.st136{fill:#FCE6C8;}
	.st137{fill:#FCF7E3;}
	.st138{fill:#C90D6B;}
	.st139{fill:#FDFEFF;}
	.st140{fill:#FDFFDC;}
	.st141{fill:#FF1A1A;}
	.st142{fill:#FF5252;}
	.st143{fill:#FF5B00;}
	.st144{fill:#FF6155;}
	.st145{fill:#FF630D;}
	.st146{fill:#FF6666;}
	.st147{fill:#FF7676;}
	.st148{fill:#FF7900;}
	.st149{fill:#FF860D;}
	.st150{fill:#FF8B00;}
	.st151{fill:#FF8F8F;}
	.st152{fill:#FF900B;}
	.st153{fill:#FF908A;}
	.st154{fill:#FF960B;}
	.st155{fill:#FF9C0D;}
	.st156{fill:#FFA9D4;}
	.st157{fill:#FFAA00;}
	.st158{fill:#FFAD40;}
	.st159{fill:#FFAF10;}
	.st160{fill:#FFB000;}
	.st161{fill:#FFBE08;}
	.st162{fill:#FFBF31;}
	.st163{fill:#FFC200;}
	.st164{fill:#FFCAE8;}
	.st165{fill:#FFCCF5;}
	.st166{fill:#FFD00B;}
	.st167{fill:#FFD039;}
	.st168{fill:#FFD400;}
	.st169{fill:#FFD833;}
	.st170{fill:#FFDB80;}
	.st171{fill:#FFDDD2;}
	.st172{fill:#FFE6D4;}
	.st173{fill:#FFE6EB;}
	.st174{fill:#FFE98D;}
	.st175{fill:#FFECD2;}
	.st176{fill:#FFF1D9;}
	.st177{fill:#FFF24D;}
	.st178{fill:#FFF3C2;}
	.st179{fill:#FFF4C7;}
	.st180{fill:#FFF800;}
	.st181{fill:#FFF80D;}
	.st182{fill:#FFF9DE;}
	.st183{fill:#FFFBD7;}
	.st184{fill:#FFFBEB;}
	.st185{fill:#FFFCC0;}
	.st186{fill:#FFFCDC;}
	.st187{fill:#FFFFFA;}
	.st188{fill:#FFFFFF;}
	.st189{fill:#63797F;}
	.st190{fill:#65E529;}
	.st191{fill:#66310E;}
	.st192{fill:#663C17;}
	.st193{fill:#9A5AE5;}
	.st194{fill:#CA30EF;}
	.st195{fill:#6892FC;}
	.st196{fill:#9CFFC4;}
	.st197{fill:#CC4306;}
	.st198{fill:#CC549E;}
	.st199{fill:#9E3256;}
	.st200{fill:#CDFFBB;}
	.st201{fill:#CE86AF;}
	.st202{fill:#CED9DD;}
	
		.st203{fill:none;stroke:#33363A;stroke-width:3;stroke-linecap:round;stroke-linejoin:round;stroke-miterlimit:10;stroke-dasharray:6;}
	.st204{fill:#CFE1E2;}
	.st205{fill:#33363A;}
	.st206{fill:#34C166;}
	.st207{fill:#364B5B;}
	.st208{fill:#3662CE;}
	.st209{fill:#36C6FF;}
	.st210{fill:#6ADB9A;}
	.st211{fill:#6D5C4D;}
	.st212{fill:#6EBDF9;}
	.st213{fill:#0031FF;}
	.st214{fill:#0062FF;}
	.st215{fill:#0068FF;}
	.st216{fill:#0086FF;}
	.st217{fill:#009BE8;}
	.st218{fill:#00AAFF;}
	.st219{fill:#D271FF;}
	.st220{fill:#D363A9;}
	.st221{fill:#D3964C;}
	.st222{fill:#D3DFE2;}
	.st223{fill:#D3E0E2;}
	.st224{fill:#D3EFF4;}
	.st225{fill:#063B66;}
	.st226{fill:#D60909;}
	.st227{fill:#D61D1D;}
	.st228{fill:#D7F0FF;}
	.st229{fill:#09B285;}
	.st230{fill:#D8D593;}
	.st231{fill:#D8E2EA;}
	.st232{fill:#D8E5EA;}
	.st233{fill:#3E5054;}
	.st234{fill:#D988FF;}
	.st235{fill:#D9E7E8;}
	.st236{fill:#702252;}
	.st237{fill:#70D3E0;}
	.st238{fill:#A02FF2;}
	.st239{fill:#A2F255;}
	.st240{fill:#A35616;}
	.st241{fill:#A3CCCC;}
	.st242{fill:#0A6ADD;}
	.st243{fill:#A5145D;}
	.st244{fill:#A57555;}
	.st245{fill:#77D6FC;}
	.st246{fill:#7815CE;}
	.st247{fill:#A7BBC1;}
	.st248{fill:#DBD279;}
	.st249{fill:#0D5C9E;}
	.st250{fill:#A83C11;}
	.st251{fill:#A8633D;}
	.st252{fill:#A8A3E5;}
	.st253{fill:#DCE6EA;}
	.st254{fill:#DCE7EA;}
	.st255{fill:#A962E8;}
	.st256{fill:#DD2466;}
	.st257{fill:#DDC38A;}
	.st258{fill:#DDD2B1;}
	.st259{fill:#DFE7E8;}
	.st260{fill:#42B1E8;}
	.st261{fill:#436377;}
	.st262{fill:#43B530;}
]]>
</style>
<g>
	<g>
		<g>
			<g>
				<path class="st168" d="M42.845,17.085c-2.965,5.133-3.018,11.145-0.68,16.135c5.49-0.471,10.67-3.521,13.635-8.656
					c2.963-5.133,3.018-11.145,0.68-16.135C50.989,8.897,45.808,11.952,42.845,17.085z"/>
			</g>
			<g>
				<path class="st163" d="M42.165,33.22c5.49-0.471,10.67-3.521,13.635-8.656c2.963-5.133,3.018-11.145,0.68-16.135"/>
			</g>
			<g>
				<path class="st143" d="M43.052,21.581c-2.004,3.469-2.039,7.529-0.459,10.9c3.707-0.318,7.205-2.379,9.209-5.848
					c2-3.467,2.037-7.527,0.457-10.896C48.552,16.054,45.052,18.114,43.052,21.581z"/>
			</g>
			<g>
				<path class="st148" d="M42.593,32.481c3.707-0.318,7.205-2.379,9.209-5.848c2-3.467,2.037-7.527,0.457-10.896"/>
			</g>
			<g>
				<path class="st205" d="M42.165,34.72c-0.578,0-1.109-0.333-1.358-0.863c-2.631-5.616-2.354-12.166,0.739-17.521
					c3.093-5.359,8.628-8.873,14.806-9.4c0.628-0.057,1.219,0.289,1.486,0.857c2.63,5.614,2.354,12.164-0.739,17.521
					c-3.093,5.356-8.628,8.871-14.806,9.4C42.25,34.718,42.207,34.72,42.165,34.72z M55.543,10.05
					c-4.767,0.731-8.975,3.585-11.399,7.785c-2.425,4.197-2.792,9.268-1.043,13.763c4.768-0.732,8.976-3.586,11.4-7.784
					C56.924,19.614,57.292,14.544,55.543,10.05z"/>
			</g>
		</g>
		<g>
			<g>
				<path class="st168" d="M51.249,19.823c-5.135,2.963-8.186,8.143-8.656,13.633c4.99,2.338,11.002,2.285,16.137-0.678
					c5.133-2.965,8.186-8.145,8.656-13.635C62.396,16.806,56.382,16.858,51.249,19.823z"/>
			</g>
			<g>
				<path class="st163" d="M42.593,33.456c4.99,2.338,11.002,2.285,16.137-0.678c5.133-2.965,8.186-8.145,8.656-13.635"/>
			</g>
			<g>
				<path class="st143" d="M49.179,23.821c-3.469,2.002-5.529,5.5-5.846,9.209c3.369,1.578,7.43,1.543,10.898-0.459
					c3.465-2.002,5.527-5.5,5.844-9.209C56.708,21.784,52.646,21.817,49.179,23.821z"/>
			</g>
			<g>
				<path class="st148" d="M43.333,33.03c3.369,1.578,7.43,1.543,10.898-0.459c3.465-2.002,5.527-5.5,5.844-9.209"/>
			</g>
			<g>
				<path class="st205" d="M50.034,36.614C50.033,36.614,50.033,36.614,50.034,36.614c-2.771,0-5.564-0.622-8.077-1.8
					c-0.569-0.267-0.912-0.86-0.858-1.486c0.53-6.179,4.044-11.713,9.401-14.804c2.875-1.661,6.142-2.539,9.447-2.539
					c2.77,0,5.562,0.622,8.076,1.8c0.569,0.267,0.912,0.86,0.858,1.486c-0.53,6.177-4.044,11.712-9.4,14.806
					C56.603,35.737,53.336,36.614,50.034,36.614z M44.215,32.52c1.85,0.719,3.841,1.095,5.818,1.095h0
					c2.777,0,5.525-0.738,7.946-2.135c4.198-2.425,7.051-6.633,7.784-11.399C61.313,18.353,56.14,18.729,52,21.122
					C47.801,23.545,44.947,27.751,44.215,32.52z"/>
			</g>
		</g>
	</g>
	<g>
		<g>
			<path class="st37" d="M66.95,84.548c-17.971-1.404-31.398-17.111-29.992-35.082c0.463-5.939,2.516-11.365,5.671-15.941
				c-12.301,3.896-21.634,14.908-22.702,28.564C18.522,80.058,31.95,95.765,49.921,97.171c12.029,0.939,23.02-4.787,29.41-14.053
				C75.444,84.349,71.267,84.886,66.95,84.548z"/>
		</g>
		<g>
			<path class="st102" d="M34.623,37.345c-3.027,4.502-4.982,9.814-5.436,15.613c-1.405,17.969,12.022,33.676,29.993,35.08
				c7.164,0.561,13.95-1.258,19.625-4.768c-3.738,1.115-7.732,1.6-11.855,1.277c-17.971-1.404-31.398-17.111-29.992-35.082
				c0.463-5.939,2.516-11.365,5.671-15.941C39.776,34.431,37.091,35.729,34.623,37.345z"/>
		</g>
		<g>
			<path class="st205" d="M52.49,98.771c-0.891,0-1.794-0.035-2.686-0.105c-18.766-1.468-32.839-17.929-31.373-36.694
				c1.09-13.926,10.41-25.653,23.745-29.877c0.612-0.196,1.278,0.022,1.659,0.537c0.381,0.516,0.393,1.217,0.029,1.744
				c-3.116,4.52-4.987,9.778-5.41,15.206c-0.649,8.293,1.97,16.341,7.375,22.662c5.404,6.322,12.947,10.16,21.239,10.809
				c3.98,0.31,7.981-0.152,11.812-1.364c0.61-0.196,1.277,0.022,1.659,0.538c0.381,0.515,0.393,1.216,0.029,1.743
				C74.173,93.238,63.678,98.771,52.49,98.771z M39.098,36.519c-10.009,4.736-16.794,14.423-17.675,25.688
				c-1.338,17.115,11.499,32.13,28.616,33.47c0.814,0.063,1.639,0.096,2.452,0.096c8.769,0,17.074-3.731,22.938-10.15
				c-2.831,0.504-5.723,0.648-8.595,0.422c-9.09-0.71-17.36-4.918-23.286-11.849c-5.925-6.931-8.796-15.755-8.085-24.846
				C35.811,44.878,37.054,40.514,39.098,36.519z"/>
		</g>
	</g>
	<g>
		<g>
			<g>
				<g>
					<path class="st158" d="M111.611,92.351c0,20.676-22.032,37.441-49.209,37.441c-27.178,0-49.209-16.766-49.209-37.441
						c0-20.68,22.031-45.459,49.209-45.459C89.579,46.892,111.611,71.671,111.611,92.351z"/>
				</g>
				<g>
					<path class="st102" d="M111.611,92.351c0,20.676-22.032,37.441-49.209,37.441c-27.178,0-49.209-16.766-49.209-37.441
						c0-20.68,22.031-34.928,49.209-34.928C89.579,57.423,111.611,71.671,111.611,92.351z"/>
				</g>
				<g>
					<path class="st158" d="M72.839,86.495c0,1.395-4.691,1.645-10.479,1.645s-10.479-0.25-10.479-1.645
						c0-1.393,4.691-5.035,10.479-5.035S72.839,85.103,72.839,86.495z"/>
				</g>
				<g>
					<path class="st37" d="M111.611,92.351c0,20.676-22.032,37.441-49.209,37.441c-27.178,0-49.209-16.766-49.209-37.441
						c0-20.682,6.261,18.34,49.209,18.34S111.611,71.669,111.611,92.351z"/>
				</g>
				<g>
					<path class="st205" d="M62.402,131.292c-27.961,0-50.709-17.469-50.709-38.941c0-21.27,22.62-46.959,50.709-46.959
						c13.041,0,25.772,5.472,35.849,15.406c9.305,9.174,14.86,20.97,14.86,31.553C113.111,113.823,90.363,131.292,62.402,131.292z
						 M62.402,48.392c-26.428,0-47.709,24.048-47.709,43.959c0,19.818,21.402,35.941,47.709,35.941s47.709-16.123,47.709-35.941
						C110.111,72.439,88.83,48.392,62.402,48.392z"/>
				</g>
			</g>
			<g>
				<g>
					<g>
						<g>
							<g>
								<path class="st22" d="M46.24,78.257c0,4.449-3.605,8.051-8.052,8.051c-4.447,0-8.051-3.602-8.051-8.051
									c0-4.447,3.604-8.051,8.051-8.051C42.635,70.206,46.24,73.81,46.24,78.257z"/>
							</g>
							<g>
								<path class="st205" d="M46.24,78.257c0,4.449-3.605,1.664-8.052,1.664c-4.447,0-8.051,2.785-8.051-1.664
									c0-4.447,3.604-8.051,8.051-8.051C42.635,70.206,46.24,73.81,46.24,78.257z"/>
							</g>
							<g>
								<path class="st205" d="M38.188,87.808c-5.266,0-9.551-4.284-9.551-9.551s4.285-9.551,9.551-9.551
									c5.267,0,9.552,4.284,9.552,9.551S43.456,87.808,38.188,87.808z M38.188,71.706c-3.612,0-6.551,2.938-6.551,6.551
									s2.938,6.551,6.551,6.551c3.613,0,6.552-2.938,6.552-6.551S41.801,71.706,38.188,71.706z"/>
							</g>
						</g>
						<g>
							<g>
								<circle class="st188" cx="34.184" cy="75.64" r="3.281"/>
							</g>
							<g>
								<path class="st205" d="M34.184,80.421c-2.636,0-4.78-2.145-4.78-4.781c0-2.636,2.145-4.779,4.78-4.779
									c2.636,0,4.781,2.144,4.781,4.779C38.965,78.276,36.82,80.421,34.184,80.421z M34.184,73.86c-0.981,0-1.78,0.798-1.78,1.779
									c0,0.982,0.799,1.781,1.78,1.781c0.982,0,1.781-0.799,1.781-1.781C35.965,74.658,35.166,73.86,34.184,73.86z"/>
							</g>
						</g>
					</g>
					<g>
						<g>
							<g>
								<path class="st22" d="M94.667,78.257c0,4.449-3.604,8.051-8.051,8.051c-4.447,0-8.052-3.602-8.052-8.051
									c0-4.447,3.604-8.051,8.052-8.051C91.062,70.206,94.667,73.81,94.667,78.257z"/>
							</g>
							<g>
								<path class="st205" d="M94.667,78.257c0,4.449-3.604,1.664-8.051,1.664c-4.447,0-8.052,2.785-8.052-1.664
									c0-4.447,3.604-8.051,8.052-8.051C91.062,70.206,94.667,73.81,94.667,78.257z"/>
							</g>
							<g>
								<path class="st205" d="M86.616,87.808c-5.267,0-9.552-4.284-9.552-9.551s4.285-9.551,9.552-9.551
									c5.266,0,9.551,4.284,9.551,9.551S91.882,87.808,86.616,87.808z M86.616,71.706c-3.613,0-6.552,2.938-6.552,6.551
									s2.939,6.551,6.552,6.551c3.612,0,6.551-2.938,6.551-6.551S90.229,71.706,86.616,71.706z"/>
							</g>
						</g>
						<g>
							<g>
								<circle class="st188" cx="82.611" cy="75.64" r="3.28"/>
							</g>
							<g>
								<path class="st205" d="M82.612,80.421c-2.636,0-4.781-2.145-4.781-4.781c0-2.636,2.145-4.779,4.781-4.779
									c2.635,0,4.779,2.144,4.779,4.779C87.392,78.276,85.248,80.421,82.612,80.421z M82.612,73.86
									c-0.982,0-1.781,0.798-1.781,1.779c0,0.982,0.799,1.781,1.781,1.781c0.981,0,1.779-0.799,1.779-1.781
									C84.392,74.658,83.593,73.86,82.612,73.86z"/>
							</g>
						</g>
					</g>
				</g>
			</g>
			<g>
				<g>
					<path class="st205" d="M60.881,102.731c-0.226-0.901-2.798-3.209-11.883-3.062c-13.746,0.248-18.002-8.107-18.176-8.462
						c-0.364-0.744-0.056-1.643,0.688-2.007c0.741-0.361,1.637-0.058,2.003,0.681c0.154,0.305,3.693,6.996,15.437,6.788
						c1.468-0.02,14.381-0.062,14.904,5.688l-2.987,0.271C60.867,102.629,60.865,102.666,60.881,102.731z"/>
				</g>
				<g>
					<path class="st205" d="M63.924,102.731c0.016-0.065,0.014-0.103,0.014-0.103l-2.987-0.271
						c0.523-5.751,13.436-5.703,14.905-5.688c0.16,0.003,0.318,0.004,0.475,0.004c11.504,0,14.924-6.715,14.958-6.784
						c0.364-0.745,1.261-1.051,2.007-0.688c0.744,0.364,1.052,1.263,0.688,2.007c-0.174,0.354-4.411,8.706-18.175,8.462
						C66.741,99.497,64.149,101.83,63.924,102.731z"/>
				</g>
			</g>
			<g>
				<g>
					<path class="st205" d="M59.935,94.548c-0.398,0-0.796-0.157-1.091-0.47l-1.5-1.588c-0.569-0.603-0.542-1.552,0.06-2.121
						c0.603-0.569,1.552-0.542,2.121,0.061l1.5,1.588c0.569,0.603,0.542,1.552-0.06,2.121
						C60.675,94.412,60.304,94.548,59.935,94.548z"/>
				</g>
				<g>
					<path class="st205" d="M64.87,94.548c-0.37,0-0.74-0.136-1.03-0.409c-0.602-0.569-0.629-1.519-0.06-2.121l1.5-1.588
						c0.569-0.603,1.518-0.629,2.121-0.061c0.602,0.569,0.629,1.519,0.06,2.121l-1.5,1.588
						C65.666,94.391,65.268,94.548,64.87,94.548z"/>
				</g>
			</g>
		</g>
	</g>
	<g>
		<g>
			<g>
				<polyline class="st188" points="40.166,97.999 35.112,100.974 34.755,95.122 				"/>
			</g>
			<g>
				<path class="st205" d="M35.112,102.474c-0.242,0-0.484-0.059-0.705-0.176c-0.46-0.245-0.761-0.712-0.792-1.232l-0.357-5.852
					c-0.051-0.827,0.579-1.538,1.406-1.589c0.82-0.047,1.539,0.578,1.588,1.405l0.208,3.409l2.945-1.733
					c0.713-0.421,1.634-0.183,2.053,0.532c0.42,0.714,0.182,1.633-0.532,2.054l-5.054,2.975
					C35.639,102.404,35.375,102.474,35.112,102.474z"/>
			</g>
		</g>
		<g>
			<g>
				<polyline class="st188" points="84.639,97.999 89.692,100.974 90.05,95.122 				"/>
			</g>
			<g>
				<path class="st205" d="M89.692,102.474c-0.263,0-0.526-0.069-0.761-0.207l-5.054-2.975c-0.714-0.421-0.952-1.34-0.532-2.054
					c0.42-0.715,1.34-0.951,2.053-0.532l2.945,1.733l0.208-3.409c0.051-0.826,0.774-1.453,1.588-1.405
					c0.827,0.051,1.457,0.762,1.406,1.589l-0.357,5.852c-0.032,0.521-0.332,0.987-0.792,1.232
					C90.176,102.415,89.934,102.474,89.692,102.474z"/>
			</g>
		</g>
	</g>
	<g>
		<g>
			<path class="st168" d="M50.007,19.522c0,5.928-2.96,11.16-7.48,14.312c-4.52-3.152-7.479-8.385-7.479-14.312
				s2.96-11.162,7.479-14.314C47.047,8.36,50.007,13.595,50.007,19.522z"/>
		</g>
		<g>
			<path class="st163" d="M42.526,33.835c-4.52-3.152-7.479-8.385-7.479-14.312s2.96-11.162,7.479-14.314"/>
		</g>
		<g>
			<path class="st143" d="M47.579,23.313c0,4.006-2,7.539-5.053,9.668c-3.053-2.129-5.051-5.662-5.051-9.668
				c0-4.002,1.998-7.537,5.051-9.664C45.579,15.776,47.579,19.312,47.579,23.313z"/>
		</g>
		<g>
			<path class="st148" d="M42.526,32.981c-3.053-2.129-5.051-5.662-5.051-9.668c0-4.002,1.998-7.537,5.051-9.664"/>
		</g>
		<g>
			<path class="st205" d="M42.526,35.335c-0.3,0-0.6-0.09-0.858-0.27c-5.085-3.547-8.122-9.357-8.122-15.543
				c0-6.187,3.036-11.998,8.122-15.545c0.515-0.359,1.2-0.359,1.716,0c5.086,3.547,8.123,9.358,8.123,15.545
				c0,6.186-3.037,11.996-8.123,15.543C43.126,35.245,42.827,35.335,42.526,35.335z M42.526,7.08
				c-3.763,3.019-5.979,7.594-5.979,12.442c0,4.848,2.217,9.422,5.979,12.44c3.763-3.018,5.98-7.593,5.98-12.44
				C48.507,14.674,46.29,10.099,42.526,7.08z"/>
		</g>
	</g>
	<g>
		<g>
			<path class="st168" d="M102.147,28.757c0,5.928-2.96,11.16-7.48,14.312c-4.52-3.152-7.479-8.385-7.479-14.312
				s2.96-11.162,7.479-14.314C99.188,17.595,102.147,22.829,102.147,28.757z"/>
		</g>
		<g>
			<path class="st163" d="M94.667,43.069c-4.52-3.152-7.479-8.385-7.479-14.312s2.96-11.162,7.479-14.314"/>
		</g>
		<g>
			<path class="st143" d="M99.72,32.548c0,4.006-2,7.539-5.053,9.668c-3.053-2.129-5.051-5.662-5.051-9.668
				c0-4.002,1.998-7.537,5.051-9.664C97.72,25.011,99.72,28.546,99.72,32.548z"/>
		</g>
		<g>
			<path class="st148" d="M94.667,42.216c-3.053-2.129-5.051-5.662-5.051-9.668c0-4.002,1.998-7.537,5.051-9.664"/>
		</g>
		<g>
			<path class="st205" d="M94.667,44.569c-0.3,0-0.6-0.09-0.858-0.27c-5.085-3.547-8.122-9.357-8.122-15.543
				c0-6.187,3.036-11.998,8.122-15.545c0.515-0.359,1.2-0.359,1.716,0c5.086,3.547,8.123,9.358,8.123,15.545
				c0,6.186-3.037,11.996-8.123,15.543C95.267,44.479,94.967,44.569,94.667,44.569z M94.667,16.314
				c-3.763,3.019-5.979,7.594-5.979,12.442c0,4.848,2.217,9.422,5.979,12.44c3.763-3.018,5.98-7.593,5.98-12.44
				C100.647,23.908,98.43,19.333,94.667,16.314z"/>
		</g>
	</g>
	<g>
		<g>
			<path class="st168" d="M121.808,52.452c0,5.928-2.961,11.16-7.481,14.312c-4.52-3.152-7.479-8.385-7.479-14.312
				s2.96-11.162,7.479-14.314C118.847,41.29,121.808,46.524,121.808,52.452z"/>
		</g>
		<g>
			<path class="st163" d="M114.326,66.765c-4.52-3.152-7.479-8.385-7.479-14.312s2.96-11.162,7.479-14.314"/>
		</g>
		<g>
			<path class="st143" d="M119.378,56.243c0,4.006-1.999,7.539-5.052,9.668c-3.052-2.129-5.052-5.662-5.052-9.668
				c0-4.002,2-7.537,5.052-9.664C117.379,48.706,119.378,52.241,119.378,56.243z"/>
		</g>
		<g>
			<path class="st148" d="M114.326,65.911c-3.052-2.129-5.052-5.662-5.052-9.668c0-4.002,2-7.537,5.052-9.664"/>
		</g>
		<g>
			<path class="st205" d="M114.326,68.265c-0.3,0-0.6-0.09-0.858-0.27c-5.085-3.547-8.122-9.357-8.122-15.543
				c0-6.187,3.036-11.998,8.122-15.545c0.515-0.359,1.2-0.359,1.716,0c5.087,3.547,8.124,9.358,8.124,15.545
				c0,6.186-3.037,11.996-8.124,15.543C114.926,68.175,114.626,68.265,114.326,68.265z M114.326,40.01
				c-3.763,3.019-5.979,7.594-5.979,12.442c0,4.848,2.217,9.422,5.979,12.44c3.764-3.019,5.981-7.593,5.981-12.44
				C120.308,47.604,118.09,43.028,114.326,40.01z"/>
		</g>
	</g>
</g>
</svg>
