<?xml version="1.0" encoding="UTF-8" standalone="no"?>
<svg
   xmlns:dc="http://purl.org/dc/elements/1.1/"
   xmlns:cc="http://creativecommons.org/ns#"
   xmlns:rdf="http://www.w3.org/1999/02/22-rdf-syntax-ns#"
   xmlns:svg="http://www.w3.org/2000/svg"
   xmlns="http://www.w3.org/2000/svg"
   xmlns:sodipodi="http://sodipodi.sourceforge.net/DTD/sodipodi-0.dtd"
   xmlns:inkscape="http://www.inkscape.org/namespaces/inkscape"
   width="48pt"
   height="48pt"
   viewBox="0 0 16.933334 16.933333"
   version="1.1"
   id="svg979"
   inkscape:version="1.0 (4035a4fb49, 2020-05-01)"
   sodipodi:docname="1. Thief.svg">
  <defs
     id="defs973" />
  <sodipodi:namedview
     id="base"
     pagecolor="#ffffff"
     bordercolor="#666666"
     borderopacity="1.0"
     inkscape:pageopacity="0.0"
     inkscape:pageshadow="2"
     inkscape:zoom="8.546875"
     inkscape:cx="-1.2285196"
     inkscape:cy="32"
     inkscape:document-units="pt"
     inkscape:current-layer="layer1"
     showgrid="false"
     units="pt"
     inkscape:window-width="1366"
     inkscape:window-height="715"
     inkscape:window-x="-8"
     inkscape:window-y="-8"
     inkscape:window-maximized="1"
     inkscape:document-rotation="0"
     inkscape:snap-bbox="true"
     inkscape:bbox-nodes="true"
     inkscape:snap-nodes="false">
    <inkscape:grid
       type="xygrid"
       id="grid1526" />
    <sodipodi:guide
       position="0.97013909,15.963209"
       orientation="56.666615,0"
       id="guide1528"
       inkscape:locked="false" />
    <sodipodi:guide
       position="0.97013909,0.97016731"
       orientation="0,56.666667"
       id="guide1530"
       inkscape:locked="false" />
    <sodipodi:guide
       position="15.963195,0.97016731"
       orientation="-56.666615,0"
       id="guide1532"
       inkscape:locked="false" />
    <sodipodi:guide
       position="15.963195,15.963209"
       orientation="0,-56.666667"
       id="guide1534"
       inkscape:locked="false" />
  </sodipodi:namedview>
  <metadata
     id="metadata976">
    <rdf:RDF>
      <cc:Work
         rdf:about="">
        <dc:format>image/svg+xml</dc:format>
        <dc:type
           rdf:resource="http://purl.org/dc/dcmitype/StillImage" />
        <dc:title></dc:title>
      </cc:Work>
    </rdf:RDF>
  </metadata>
  <g
     inkscape:label="Layer 1"
     inkscape:groupmode="layer"
     id="layer1"
     transform="translate(0,-280.06668)">
    <g
       transform="matrix(1.2319862,0,0,1.2319862,54.883993,307.83011)"
       style="display:inline"
       id="g477">
      <g
         id="g1147">
        <path
           sodipodi:nodetypes="sccsssccss"
           style="color:#000000;font-style:normal;font-variant:normal;font-weight:normal;font-stretch:normal;font-size:medium;line-height:normal;font-family:sans-serif;font-variant-ligatures:normal;font-variant-position:normal;font-variant-caps:normal;font-variant-numeric:normal;font-variant-alternates:normal;font-variant-east-asian:normal;font-feature-settings:normal;font-variation-settings:normal;text-indent:0;text-align:start;text-decoration:none;text-decoration-line:none;text-decoration-style:solid;text-decoration-color:#000000;letter-spacing:normal;word-spacing:normal;text-transform:none;writing-mode:lr-tb;direction:ltr;text-orientation:mixed;dominant-baseline:auto;baseline-shift:baseline;text-anchor:start;white-space:normal;shape-padding:0;shape-margin:0;inline-size:0;clip-rule:nonzero;display:inline;overflow:visible;visibility:visible;opacity:1;isolation:auto;mix-blend-mode:normal;color-interpolation:sRGB;color-interpolation-filters:linearRGB;solid-color:#000000;solid-opacity:1;vector-effect:none;fill:#f8c09d;fill-opacity:1;fill-rule:nonzero;stroke:none;stroke-width:0.529167;stroke-linecap:round;stroke-linejoin:round;stroke-miterlimit:4;stroke-dasharray:none;stroke-dashoffset:0;stroke-opacity:1;color-rendering:auto;image-rendering:auto;shape-rendering:auto;text-rendering:auto;enable-background:accumulate;stop-color:#000000;stop-opacity:1"
           d="m -37.703125,-17.958984 c -1.019371,-0.0032 -1.75541,0.08516 -2.753502,0.253906 -0.105538,0.01837 -0.189586,0.09857 -0.21289,0.203125 -0.05132,0.232946 -0.07813,0.474828 -0.07813,0.722656 10e-7,1.844351 1.225555,3.345703 3.069908,3.345703 1.844351,0 2.870081,-1.501352 2.870082,-3.345703 0,-0.234162 -0.02436,-0.462565 -0.07031,-0.683594 -0.02163,-0.105507 -0.105044,-0.187379 -0.210937,-0.207031 -1.041055,-0.192167 -1.594852,-0.285867 -2.614223,-0.289062 z"
           id="path1196" />
        <path
           sodipodi:nodetypes="sccscscsccss"
           id="path316"
           style="fill:#f5a794;fill-opacity:1;stroke:none;stroke-width:0.999999px;stroke-linecap:butt;stroke-linejoin:miter;stroke-opacity:1"
           d="m -142.5,-67.876953 c -3.85274,-0.0121 -6.25278,0.323157 -10.0251,0.960937 -0.39887,0.0694 -0.71654,0.37243 -0.80468,0.767578 -0.19397,0.880426 -0.29493,1.793796 -0.29493,2.730469 0,0.238597 0.0221,0.471648 0.0352,0.707031 3.48199,3.489052 10.2987,-0.622885 14.03486,3.113282 1.59542,1.595413 2.15204,4.122293 3.59934,6.43164 3.18567,-2.298682 5.26953,-6.033683 5.26953,-10.251953 0,-0.885021 -0.0919,-1.748599 -0.26562,-2.583984 -0.0821,-0.398184 -0.39714,-0.707018 -0.79688,-0.78125 -3.93469,-0.726301 -6.89894,-1.081675 -10.75168,-1.09375 z"
           transform="scale(0.26458333)" />
        <path
           style="color:#000000;font-style:normal;font-variant:normal;font-weight:normal;font-stretch:normal;font-size:medium;line-height:normal;font-family:sans-serif;font-variant-ligatures:normal;font-variant-position:normal;font-variant-caps:normal;font-variant-numeric:normal;font-variant-alternates:normal;font-variant-east-asian:normal;font-feature-settings:normal;font-variation-settings:normal;text-indent:0;text-align:start;text-decoration:none;text-decoration-line:none;text-decoration-style:solid;text-decoration-color:#000000;letter-spacing:normal;word-spacing:normal;text-transform:none;writing-mode:lr-tb;direction:ltr;text-orientation:mixed;dominant-baseline:auto;baseline-shift:baseline;text-anchor:start;white-space:normal;shape-padding:0;shape-margin:0;inline-size:0;clip-rule:nonzero;display:inline;overflow:visible;visibility:visible;opacity:1;isolation:auto;mix-blend-mode:normal;color-interpolation:sRGB;color-interpolation-filters:linearRGB;solid-color:#000000;solid-opacity:1;vector-effect:none;fill:#0f2437;fill-opacity:1;fill-rule:nonzero;stroke:none;stroke-width:0.529167;stroke-linecap:round;stroke-linejoin:round;stroke-miterlimit:4;stroke-dasharray:none;stroke-dashoffset:0;stroke-opacity:1;color-rendering:auto;image-rendering:auto;shape-rendering:auto;text-rendering:auto;enable-background:accumulate;stop-color:#000000;stop-opacity:1"
           d="m -39.943359,-16.537109 1.792968,0.482421 c -0.01183,0.0477 0.0042,0.103763 -0.04492,0.15625 -0.07952,0.08494 -0.260293,0.177302 -0.470704,0.261719 -0.682648,-0.194707 -1.04695,-0.514352 -1.277343,-0.90039 z"
           id="path1208" />
        <path
           style="color:#000000;font-style:normal;font-variant:normal;font-weight:normal;font-stretch:normal;font-size:medium;line-height:normal;font-family:sans-serif;font-variant-ligatures:normal;font-variant-position:normal;font-variant-caps:normal;font-variant-numeric:normal;font-variant-alternates:normal;font-variant-east-asian:normal;font-feature-settings:normal;font-variation-settings:normal;text-indent:0;text-align:start;text-decoration:none;text-decoration-line:none;text-decoration-style:solid;text-decoration-color:#000000;letter-spacing:normal;word-spacing:normal;text-transform:none;writing-mode:lr-tb;direction:ltr;text-orientation:mixed;dominant-baseline:auto;baseline-shift:baseline;text-anchor:start;white-space:normal;shape-padding:0;shape-margin:0;inline-size:0;clip-rule:nonzero;display:inline;overflow:visible;visibility:visible;opacity:1;isolation:auto;mix-blend-mode:normal;color-interpolation:sRGB;color-interpolation-filters:linearRGB;solid-color:#000000;solid-opacity:1;vector-effect:none;fill:#0f2437;fill-opacity:1;fill-rule:nonzero;stroke:none;stroke-width:0.529167;stroke-linecap:round;stroke-linejoin:round;stroke-miterlimit:4;stroke-dasharray:none;stroke-dashoffset:0;stroke-opacity:1;color-rendering:auto;image-rendering:auto;shape-rendering:auto;text-rendering:auto;enable-background:accumulate;stop-color:#000000;stop-opacity:1"
           d="m -35.410156,-16.537109 c -0.23041,0.386064 -0.596567,0.705683 -1.279297,0.90039 -0.210411,-0.08442 -0.391183,-0.176781 -0.470703,-0.261719 -0.04914,-0.05249 -0.03309,-0.108546 -0.04492,-0.15625 z"
           id="path1216" />
        <path
           sodipodi:nodetypes="sssccccsss"
           style="color:#000000;font-style:normal;font-variant:normal;font-weight:normal;font-stretch:normal;font-size:medium;line-height:normal;font-family:sans-serif;font-variant-ligatures:normal;font-variant-position:normal;font-variant-caps:normal;font-variant-numeric:normal;font-variant-alternates:normal;font-variant-east-asian:normal;font-feature-settings:normal;font-variation-settings:normal;text-indent:0;text-align:start;text-decoration:none;text-decoration-line:none;text-decoration-style:solid;text-decoration-color:#000000;letter-spacing:normal;word-spacing:normal;text-transform:none;writing-mode:lr-tb;direction:ltr;text-orientation:mixed;dominant-baseline:auto;baseline-shift:baseline;text-anchor:start;white-space:normal;shape-padding:0;shape-margin:0;inline-size:0;clip-rule:nonzero;display:inline;overflow:visible;visibility:visible;isolation:auto;mix-blend-mode:normal;color-interpolation:sRGB;color-interpolation-filters:linearRGB;solid-color:#000000;solid-opacity:1;vector-effect:none;fill:#3a4d5c;fill-opacity:1;fill-rule:nonzero;stroke:none;stroke-width:0.529167;stroke-linecap:round;stroke-linejoin:round;stroke-miterlimit:4;stroke-dasharray:none;stroke-dashoffset:0;stroke-opacity:1;color-rendering:auto;image-rendering:auto;shape-rendering:auto;text-rendering:auto;enable-background:accumulate;stop-color:#000000"
           d="m -37.942709,-21.54422 c -0.776597,0 -1.068135,0.139936 -1.465494,0.375 -0.397359,0.235065 -0.449369,0.365422 -0.551356,0.688751 -0.203976,0.646659 0.03516,1.253906 0.03516,1.253907 0.03806,0.104215 0.137099,0.173617 0.248047,0.173828 h 4.057202 c 0.110949,-2.11e-4 0.209984,-0.06961 0.248047,-0.173828 0,0 0.09031,-0.60738 -0.114574,-1.253907 -0.10244,-0.323263 -0.32701,-0.657575 -0.724609,-0.892578 -0.3976,-0.235003 -0.955826,-0.171173 -1.732423,-0.171173 z"
           id="path1151" />
        <path
           sodipodi:nodetypes="cccccccc"
           id="path1155"
           style="color:#000000;font-style:normal;font-variant:normal;font-weight:normal;font-stretch:normal;font-size:medium;line-height:normal;font-family:sans-serif;font-variant-ligatures:normal;font-variant-position:normal;font-variant-caps:normal;font-variant-numeric:normal;font-variant-alternates:normal;font-variant-east-asian:normal;font-feature-settings:normal;font-variation-settings:normal;text-indent:0;text-align:start;text-decoration:none;text-decoration-line:none;text-decoration-style:solid;text-decoration-color:#000000;letter-spacing:normal;word-spacing:normal;text-transform:none;writing-mode:lr-tb;direction:ltr;text-orientation:mixed;dominant-baseline:auto;baseline-shift:baseline;text-anchor:start;white-space:normal;shape-padding:0;shape-margin:0;inline-size:0;clip-rule:nonzero;display:inline;overflow:visible;visibility:visible;isolation:auto;mix-blend-mode:normal;color-interpolation:sRGB;color-interpolation-filters:linearRGB;solid-color:#000000;solid-opacity:1;vector-effect:none;fill:#143441;fill-opacity:1;fill-rule:nonzero;stroke:none;stroke-width:2;stroke-linecap:round;stroke-linejoin:round;stroke-miterlimit:4;stroke-dasharray:none;stroke-dashoffset:0;stroke-opacity:1;color-rendering:auto;image-rendering:auto;shape-rendering:auto;text-rendering:auto;enable-background:accumulate;stop-color:#000000"
           d="m -142.30859,-77.029297 c -3.2044,-0.01383 -5.73127,0.376682 -8.96683,1.197266 -0.12093,1.769105 0.41797,3.164059 0.41797,3.164062 0.14346,0.39436 0.51786,0.657219 0.9375,0.658203 h 14.95063 c 0.41964,-9.84e-4 0.79404,-0.263843 0.9375,-0.658203 0,0 0.53157,-1.386663 0.41211,-3.148437 -3.13651,-0.787603 -5.509,-1.199048 -8.68888,-1.212891 z"
           transform="scale(0.26458333)" />
        <path
           style="color:#000000;font-style:normal;font-variant:normal;font-weight:normal;font-stretch:normal;font-size:medium;line-height:normal;font-family:sans-serif;font-variant-ligatures:normal;font-variant-position:normal;font-variant-caps:normal;font-variant-numeric:normal;font-variant-alternates:normal;font-variant-east-asian:normal;font-feature-settings:normal;font-variation-settings:normal;text-indent:0;text-align:start;text-decoration:none;text-decoration-line:none;text-decoration-style:solid;text-decoration-color:#000000;letter-spacing:normal;word-spacing:normal;text-transform:none;writing-mode:lr-tb;direction:ltr;text-orientation:mixed;dominant-baseline:auto;baseline-shift:baseline;text-anchor:start;white-space:normal;shape-padding:0;shape-margin:0;inline-size:0;clip-rule:nonzero;display:inline;overflow:visible;visibility:visible;isolation:auto;mix-blend-mode:normal;color-interpolation:sRGB;color-interpolation-filters:linearRGB;solid-color:#000000;solid-opacity:1;vector-effect:none;fill:#3a4d5c;fill-opacity:1;fill-rule:nonzero;stroke:none;stroke-width:0.529167;stroke-linecap:round;stroke-linejoin:round;stroke-miterlimit:4;stroke-dasharray:none;stroke-dashoffset:0;stroke-opacity:1;color-rendering:auto;image-rendering:auto;shape-rendering:auto;text-rendering:auto;enable-background:accumulate;stop-color:#000000"
           d="m -37.652344,-19.851562 c -1.112019,-0.0048 -2.231374,0.367138 -3.357422,0.74637 -0.093,0.03079 0.04245,0.110441 0.02609,0.207031 -0.10192,0.59876 0.05212,0.992176 0.338707,1.570036 0.05275,0.106684 -0.0336,0.165026 0.08328,0.142578 1.869773,-0.369966 3.709652,-0.303024 5.739676,0.03711 0.116523,0.01991 0.23212,-0.03988 0.283203,-0.146484 0.269129,-0.556915 0.482181,-1.16787 0.370836,-1.798828 -0.01701,-0.09585 -0.08528,-0.174616 -0.177734,-0.205078 -1.090784,-0.359317 -2.194622,-0.547894 -3.306641,-0.552735 z"
           id="path1165"
           sodipodi:nodetypes="cccccccccc" />
        <path
           sodipodi:nodetypes="sccccs"
           style="color:#000000;font-style:normal;font-variant:normal;font-weight:normal;font-stretch:normal;font-size:medium;line-height:normal;font-family:sans-serif;font-variant-ligatures:normal;font-variant-position:normal;font-variant-caps:normal;font-variant-numeric:normal;font-variant-alternates:normal;font-variant-east-asian:normal;font-feature-settings:normal;font-variation-settings:normal;text-indent:0;text-align:start;text-decoration:none;text-decoration-line:none;text-decoration-style:solid;text-decoration-color:#000000;letter-spacing:normal;word-spacing:normal;text-transform:none;writing-mode:lr-tb;direction:ltr;text-orientation:mixed;dominant-baseline:auto;baseline-shift:baseline;text-anchor:start;white-space:normal;shape-padding:0;shape-margin:0;inline-size:0;clip-rule:nonzero;display:inline;overflow:visible;visibility:visible;opacity:1;isolation:auto;mix-blend-mode:normal;color-interpolation:sRGB;color-interpolation-filters:linearRGB;solid-color:#000000;solid-opacity:1;vector-effect:none;fill:#3a4d5c;fill-opacity:1;fill-rule:nonzero;stroke:none;stroke-width:0.529167;stroke-linecap:round;stroke-linejoin:round;stroke-miterlimit:4;stroke-dasharray:none;stroke-dashoffset:0;stroke-opacity:1;color-rendering:auto;image-rendering:auto;shape-rendering:auto;text-rendering:auto;enable-background:accumulate;stop-color:#000000;stop-opacity:1"
           d="m -37.677734,-13.593816 c -2.248922,0 -3.81008,1.46682 -3.809671,3.564653 5.17e-4,0.146171 0.119454,0.2642339 0.265625,0.2636723 h 7.133283 c 0.14617,5.616e-4 0.265107,-0.1175013 0.265625,-0.2636723 -4.13e-4,-2.097767 -1.60594,-3.564653 -3.854862,-3.564653 z"
           id="path1220" />
        <path
           id="path1144"
           style="fill:#143441;fill-opacity:1;stroke:none;stroke-width:0.999999px;stroke-linecap:butt;stroke-linejoin:miter;stroke-opacity:1"
           d="m -142.4043,-51.81333 c -3.22165,0 -6.19996,1.446413 -8.66015,3.19772 4.61704,2.007539 10.70383,-0.242009 13.72461,4.523813 1.96693,3.10319 0.87521,5.023192 1.57031,7.236944 h 6.60389 c 0.55226,0.0021 1.00169,-0.443833 1.0039,-0.996094 -0.002,-7.928568 -5.74269,-13.962383 -14.24256,-13.962383 z"
           transform="scale(0.26458333)"
           sodipodi:nodetypes="scscccs" />
        <path
           sodipodi:nodetypes="cccccccccc"
           id="path1229"
           style="color:#000000;font-style:normal;font-variant:normal;font-weight:normal;font-stretch:normal;font-size:medium;line-height:normal;font-family:sans-serif;font-variant-ligatures:normal;font-variant-position:normal;font-variant-caps:normal;font-variant-numeric:normal;font-variant-alternates:normal;font-variant-east-asian:normal;font-feature-settings:normal;font-variation-settings:normal;text-indent:0;text-align:start;text-decoration:none;text-decoration-line:none;text-decoration-style:solid;text-decoration-color:#000000;letter-spacing:normal;word-spacing:normal;text-transform:none;writing-mode:lr-tb;direction:ltr;text-orientation:mixed;dominant-baseline:auto;baseline-shift:baseline;text-anchor:start;white-space:normal;shape-padding:0;shape-margin:0;inline-size:0;clip-rule:nonzero;display:inline;overflow:visible;visibility:visible;opacity:1;isolation:auto;mix-blend-mode:normal;color-interpolation:sRGB;color-interpolation-filters:linearRGB;solid-color:#000000;solid-opacity:1;vector-effect:none;fill:#d0e2ee;fill-opacity:1;fill-rule:nonzero;stroke:none;stroke-width:2;stroke-linecap:round;stroke-linejoin:round;stroke-miterlimit:4;stroke-dasharray:none;stroke-dashoffset:0;stroke-opacity:1;color-rendering:auto;image-rendering:auto;shape-rendering:auto;text-rendering:auto;enable-background:accumulate;stop-color:#000000;stop-opacity:1"
           d="m -151.52576,-47.941381 c -0.6693,0.616146 -1.28681,0.411954 -1.8418,1.128426 h 22.2028 c -0.55553,-0.71669 -1.17388,-0.512126 -1.84375,-1.128426 z m -3.73243,5.115235 c -0.29864,0.649893 -0.55497,0.172152 -0.75976,0.856059 h 27.56001 c -0.20512,-0.683975 -0.46273,-0.2061 -0.76172,-0.856059 z"
           transform="scale(0.26458333)" />
        <path
           sodipodi:nodetypes="sccsccscsccsccscccsccsccccsccsc"
           id="path1181"
           style="color:#000000;font-style:normal;font-variant:normal;font-weight:normal;font-stretch:normal;font-size:medium;line-height:normal;font-family:sans-serif;font-variant-ligatures:normal;font-variant-position:normal;font-variant-caps:normal;font-variant-numeric:normal;font-variant-alternates:normal;font-variant-east-asian:normal;font-feature-settings:normal;font-variation-settings:normal;text-indent:0;text-align:start;text-decoration:none;text-decoration-line:none;text-decoration-style:solid;text-decoration-color:#000000;letter-spacing:normal;word-spacing:normal;text-transform:none;writing-mode:lr-tb;direction:ltr;text-orientation:mixed;dominant-baseline:auto;baseline-shift:baseline;text-anchor:start;white-space:normal;shape-padding:0;shape-margin:0;inline-size:0;clip-rule:nonzero;display:inline;overflow:visible;visibility:visible;opacity:1;isolation:auto;mix-blend-mode:normal;color-interpolation:sRGB;color-interpolation-filters:linearRGB;solid-color:#000000;solid-opacity:1;vector-effect:none;fill:#d0e2ee;fill-opacity:1;fill-rule:nonzero;stroke:none;stroke-width:2;stroke-linecap:round;stroke-linejoin:round;stroke-miterlimit:4;stroke-dasharray:none;stroke-dashoffset:0;stroke-opacity:1;color-rendering:auto;image-rendering:auto;shape-rendering:auto;text-rendering:auto;enable-background:accumulate;stop-color:#000000;stop-opacity:1"
           d="m -142.30859,-75.029297 c -0.0579,-2.5e-4 -0.11589,0.0019 -0.17383,0.002 0.0717,0.07852 0.1554,0.145113 0.24804,0.197266 2.26868,1.260291 3.46808,2.852252 3.38227,4.546875 -0.0758,1.497326 -1.37221,3.120755 -2.72016,4.429687 0.84421,0.02448 1.69077,0.06265 2.54102,0.119141 0.99329,-1.342984 1.6193,-2.874879 1.69922,-4.453125 0.0835,-1.649843 -0.50078,-3.309849 -1.76563,-4.693359 -1.06795,-0.09426 -2.13865,-0.14377 -3.21093,-0.148438 z m -0.58203,0.0098 c -1.14117,0.01245 -2.28451,0.07719 -3.42969,0.193359 -1.23044,1.372706 -1.07645,3.010342 -0.994,4.638672 0.0785,1.550249 -0.0408,3.056978 0.92173,4.382812 0.8513,-0.04307 1.70726,-0.06654 2.56836,-0.07227 -1.33271,-1.30462 -2.1356,-2.918383 -2.21094,-4.40625 -0.0858,-1.694623 0.63172,-3.286584 2.90039,-4.546875 0.0907,-0.05012 0.17308,-0.114032 0.24415,-0.189453 z m 5.16796,0.287109 c 2.13657,1.244784 2.82781,2.797038 2.74414,4.449219 -0.0805,1.590349 -1.00047,3.319361 -2.50195,4.666015 0.83624,0.07361 1.67422,0.163917 2.51367,0.265626 1.16455,-1.430213 1.31123,-3.105429 1.39886,-4.835938 0.0687,-1.355924 0.27193,-2.717581 -0.56487,-3.929688 -1.19341,-0.259353 -2.38979,-0.466351 -3.58985,-0.615234 z m -10.08203,0.08594 c -1.18098,0.166585 -2.36373,0.387276 -3.54883,0.667968 -0.77077,1.17701 -0.35997,2.486828 -0.29393,3.791016 0.0857,1.692443 0.5133,3.330849 1.15331,4.740234 0.82115,-0.106382 1.64682,-0.196709 2.48047,-0.263672 -1.44042,-1.33281 -2.32172,-3.018606 -2.40039,-4.572265 -0.0818,-1.614985 0.58451,-3.132991 2.60937,-4.363281 z"
           transform="scale(0.26458333)" />
        <path
           sodipodi:nodetypes="cccccccccccccc"
           id="path1149"
           style="fill:#aabfd0;fill-opacity:1;stroke:none;stroke-width:0.999999px;stroke-linecap:butt;stroke-linejoin:miter;stroke-opacity:1"
           d="m -146.19727,-47.995854 c 2.31876,0.41323 4.62766,-0.06862 6.50977,1.128426 h 8.58888 c -0.48291,0 -0.009,-0.01172 -0.0137,-0.01758 -0.54172,-0.728748 -1.19251,-0.488533 -1.82226,-1.104992 -0.002,-0.0019 -0.004,-0.004 -0.006,-0.0059 z m 9.28711,5.115235 c 0.34193,0.69471 0.5324,0.322931 0.65235,0.965006 h 7.90686 c -0.002,-0.0058 -0.002,-0.01183 -0.004,-0.01758 -0.20482,-0.686863 -0.48495,-0.312982 -0.75391,-0.943522 -6.1e-4,-0.0013 -0.001,-0.0026 -0.002,-0.0039 z"
           transform="scale(0.26458333)" />
      </g>
      <path
         sodipodi:nodetypes="sssccccsccccccccccsccccssccscsccsssscccscscsccccccsccsccsccccccsccsccccscccccsccsccccccccccccscccscsccscccccccccccccccccc"
         d="m -37.677804,-21.748026 c -0.776597,0 -1.333283,0.140106 -1.730643,0.375171 -0.397359,0.235065 -0.622517,0.569123 -0.724503,0.892452 -0.114424,0.362756 -0.08846,0.699698 -0.04444,0.93741 -0.277048,0.06938 -0.554635,0.150331 -0.832509,0.243913 -0.09307,0.03081 -0.161472,0.110552 -0.177765,0.207222 -0.09567,0.562062 -0.0037,1.11994 0.234092,1.653129 -0.04279,0.213716 -0.0677,0.433536 -0.0677,0.659392 3e-6,1.398338 0.862417,2.597793 2.083078,3.096968 -1.141981,0.393777 -2.056138,1.296402 -2.500106,2.383834 -0.0029,0.0068 -0.0054,0.01368 -0.0078,0.02067 -0.183018,0.455293 -0.286385,0.941287 -0.28629,1.4360897 5.29e-4,0.14612 0.119496,0.264108 0.265618,0.26355 h 7.579899 c 0.146119,5.56e-4 0.265031,-0.117431 0.265616,-0.26355 -9.6e-5,-0.4921567 -0.102844,-0.9756517 -0.284218,-1.4288527 -0.0036,-0.01219 -0.0081,-0.02411 -0.01344,-0.03566 -0.445622,-1.084036 -1.358496,-1.983209 -2.498037,-2.37608 1.220996,-0.499271 2.084625,-1.698778 2.084625,-3.096968 0,-0.22789 -0.0241,-0.4501 -0.06769,-0.665593 0.222885,-0.508688 0.335893,-1.060406 0.232026,-1.648995 -0.01699,-0.09588 -0.08527,-0.17469 -0.177768,-0.205155 -0.275934,-0.0909 -0.552913,-0.170428 -0.83044,-0.239262 0.04424,-0.237809 0.07135,-0.57667 -0.04444,-0.942061 -0.102439,-0.323263 -0.326903,-0.657449 -0.724503,-0.892452 -0.394859,-0.233383 -0.948955,-0.372739 -1.717207,-0.374654 -0.0052,-3.18e-4 -0.01034,-5.03e-4 -0.0155,-5.29e-4 z m 0,0.529166 c 0.712456,0 1.173474,0.129654 1.46296,0.300757 0.289489,0.171103 0.421259,0.379684 0.490411,0.597897 0.07719,0.243595 0.05945,0.423537 0.02945,0.601513 -1.32235,-0.260733 -2.667955,-0.257871 -3.962032,-0.0057 -0.02932,-0.178274 -0.04607,-0.356798 0.02998,-0.597897 0.06881,-0.218143 0.199207,-0.424787 0.488341,-0.595829 0.289131,-0.171041 0.748437,-0.300757 1.460892,-0.300757 z m 0.02016,1.925464 c 0.21794,6.88e-4 0.435345,0.01018 0.652671,0.02584 0.09074,0.118138 0.157094,0.34868 0.145727,0.619084 -0.01175,0.279609 -0.113043,0.562976 -0.203604,0.7059 -0.213805,-0.0086 -0.427355,-0.01587 -0.640271,-0.01654 -0.219448,-6.88e-4 -0.438261,0.0047 -0.656807,0.0124 -0.08982,-0.144559 -0.188878,-0.425166 -0.200504,-0.701766 -0.01127,-0.268148 0.05357,-0.496941 0.143143,-0.615983 0.253735,-0.01968 0.506859,-0.02972 0.759645,-0.02894 z m 1.268137,0.09043 c 0.190902,0.02606 0.381513,0.05619 0.572058,0.09353 h 5.29e-4 c 0.04203,0.188464 0.05416,0.427078 0.02376,0.652157 -0.03239,0.239895 -0.116049,0.45502 -0.212907,0.59066 -0.156538,-0.01602 -0.312666,-0.02864 -0.468704,-0.04031 0.08833,-0.218182 0.132048,-0.466636 0.142626,-0.718302 0.0081,-0.192308 -0.0068,-0.392263 -0.05736,-0.577743 z m -2.642732,0.0072 c -0.04892,0.183474 -0.06379,0.380691 -0.05581,0.570508 0.01045,0.248905 0.05367,0.494609 0.140044,0.711067 -0.168781,0.01165 -0.337207,0.02542 -0.505394,0.04186 -0.0945,-0.136093 -0.17481,-0.348716 -0.206706,-0.584977 -0.02917,-0.216089 -0.02093,-0.446143 0.01654,-0.630969 0.204148,-0.04255 0.407932,-0.07838 0.611331,-0.107487 z m 3.771347,0.212906 c 0.180792,0.04581 0.361513,0.09516 0.542086,0.150896 0.03477,0.385273 -0.0078,0.754472 -0.150379,1.120862 -0.18833,-0.03191 -0.376724,-0.06387 -0.564308,-0.0894 0.08311,-0.182168 0.136252,-0.381845 0.163817,-0.586011 0.02696,-0.1997 0.02946,-0.402128 0.0088,-0.596346 z m -4.937167,0.02636 c -0.01752,0.186039 -0.01331,0.379463 0.01241,0.56999 0.02709,0.200629 0.07914,0.397025 0.159679,0.57671 -0.159552,0.02074 -0.318513,0.04642 -0.477488,0.07131 -0.13969,-0.366056 -0.165807,-0.72642 -0.133326,-1.091406 0.146396,-0.04605 0.292774,-0.08753 0.438732,-0.126607 z m 2.492872,1.526521 c 0.881713,0.0028 1.773642,0.09384 2.672704,0.243396 l -2.53783,0.680579 c -0.03948,0.0108 -0.07592,0.03061 -0.106453,0.05788 -0.03053,-0.02727 -0.06697,-0.04708 -0.106452,-0.05788 l -2.613279,-0.700732 c 0.890334,-0.138736 1.785395,-0.226076 2.69131,-0.223243 z m -2.238108,0.892969 1.792655,0.482141 c -0.01183,0.0477 0.0047,0.104093 -0.04444,0.15658 -0.07952,0.08494 -0.26036,0.177065 -0.47077,0.261483 -0.682649,-0.194708 -1.047049,-0.514166 -1.277443,-0.900204 z m 4.533059,0 c -0.230413,0.386064 -0.596263,0.705496 -1.278993,0.900204 -0.21041,-0.08442 -0.391253,-0.176545 -0.470774,-0.261483 -0.04914,-0.05249 -0.03312,-0.108876 -0.04496,-0.15658 z m -5.022435,0.33538 c 0.331581,0.511214 0.8978,0.901348 1.709973,1.113627 0.05113,0.01287 0.104931,0.01017 0.154514,-0.0078 0.313709,-0.109723 0.573006,-0.241964 0.759643,-0.441316 0.05237,-0.05593 0.09469,-0.120073 0.130741,-0.188103 0.03584,0.06805 0.07836,0.132156 0.130741,0.188103 0.18664,0.199352 0.448001,0.331593 0.761712,0.441316 0.04958,0.01792 0.103386,0.02062 0.154511,0.0078 0.812173,-0.212279 1.378395,-0.602413 1.709973,-1.113627 -0.265747,1.280017 -1.396733,2.238623 -2.756937,2.238623 -1.360204,0 -2.489502,-0.958606 -2.754871,-2.238623 z m 2.754871,2.832385 c 0.668345,0 1.288317,0.209627 1.815393,0.555005 h -3.630268 c 0.526886,-0.345504 1.146402,-0.555005 1.814875,-0.555005 z m -2.449462,1.084172 h 4.899959 c 0.237424,0.246927 0.440187,0.524947 0.60203,0.824239 h -6.103504 c 0.161677,-0.29929 0.364258,-0.577309 0.601515,-0.824239 z m -0.836126,1.353406 h 6.572726 c 0.09384,0.267322 0.158478,0.543794 0.183452,0.824239 h -6.939111 c 0.02487,-0.280435 0.08922,-0.556921 0.182933,-0.824239 z"
         style="color:#000000;font-style:normal;font-variant:normal;font-weight:normal;font-stretch:normal;font-size:medium;line-height:normal;font-family:sans-serif;font-variant-ligatures:normal;font-variant-position:normal;font-variant-caps:normal;font-variant-numeric:normal;font-variant-alternates:normal;font-variant-east-asian:normal;font-feature-settings:normal;font-variation-settings:normal;text-indent:0;text-align:start;text-decoration:none;text-decoration-line:none;text-decoration-style:solid;text-decoration-color:#000000;letter-spacing:normal;word-spacing:normal;text-transform:none;writing-mode:lr-tb;direction:ltr;text-orientation:mixed;dominant-baseline:auto;baseline-shift:baseline;text-anchor:start;white-space:normal;shape-padding:0;shape-margin:0;inline-size:0;clip-rule:nonzero;display:inline;overflow:visible;visibility:visible;opacity:1;isolation:auto;mix-blend-mode:normal;color-interpolation:sRGB;color-interpolation-filters:linearRGB;solid-color:#000000;solid-opacity:1;vector-effect:none;fill:#000000;fill-opacity:1;fill-rule:nonzero;stroke:none;stroke-width:0.529167;stroke-linecap:round;stroke-linejoin:round;stroke-miterlimit:4;stroke-dasharray:none;stroke-dashoffset:0;stroke-opacity:1;color-rendering:auto;image-rendering:auto;shape-rendering:auto;text-rendering:auto;enable-background:accumulate;stop-color:#000000;stop-opacity:1"
         id="path440" />
    </g>
  </g>
</svg>
