<?xml version="1.0" encoding="utf-8"?>
<!-- Generator: Adobe Illustrator 16.0.0, SVG Export Plug-In . SVG Version: 6.00 Build 0)  -->
<!DOCTYPE svg PUBLIC "-//W3C//DTD SVG 1.1//EN" "http://www.w3.org/Graphics/SVG/1.1/DTD/svg11.dtd">
<svg version="1.1" id="Layer_1" xmlns="http://www.w3.org/2000/svg" xmlns:xlink="http://www.w3.org/1999/xlink" x="0px" y="0px"
	 width="135px" height="135px" viewBox="0 0 135 135" style="enable-background:new 0 0 135 135;" xml:space="preserve">
<style type="text/css">
<![CDATA[
	.st0{fill:#465652;}
	.st1{fill:#AAB9BA;}
	.st2{fill:#47C67B;}
	.st3{fill:#AAC8D1;}
	.st4{fill:none;stroke:#E83834;stroke-width:6;stroke-linecap:round;stroke-linejoin:round;stroke-miterlimit:10;}
	.st5{fill:#7BC67B;}
	.st6{fill:#7BC7FF;}
	.st7{fill:#7C34C1;}
	.st8{fill:#7C8D96;}
	.st9{fill:#AD2707;}
	.st10{fill:#ADB8BC;}
	.st11{fill:#107510;}
	.st12{fill:#7FE5D8;}
	.st13{fill:#AF4AD1;}
	.st14{fill:#E02B7E;}
	.st15{fill:#E04038;}
	.st16{fill:#AFD7DD;}
	.st17{fill:#E0A010;}
	.st18{fill:#E0D5A4;}
	.st19{fill:#12B2B2;}
	.st20{fill:#12D66B;}
	.st21{fill:#E1A9FF;}
	.st22{fill:#1362A8;}
	.st23{fill:#E2378D;}
	.st24{fill:#E29C37;}
	.st25{fill:#E2B90E;}
	.st26{fill:#E2BF91;}
	.st27{fill:#E2CBAA;}
	.st28{fill:#14A594;}
	.st29{fill:#E4E9ED;}
	.st30{fill:#4A5D60;}
	.st31{fill:#E5B076;}
	.st32{fill:#E5B1C4;}
	.st33{fill:#E5E4C3;}
	.st34{fill:#4B6466;}
	.st35{fill:#E6FF2E;}
	.st36{fill:#18AA67;}
	.st37{fill:#E86207;}
	.st38{fill:#E8A113;}
	.st39{fill:#E8B5A6;}
	.st40{fill:#E8E8ED;}
	.st41{fill:#4E5154;}
	.st42{fill:#E9F1F4;}
	.st43{fill:#4F4B48;}
	.st44{fill:#4F74E8;}
	.st45{fill:#808E93;}
	.st46{fill:#80949B;}
	.st47{fill:#80EDAC;}
	.st48{fill:#B122E0;}
	.st49{fill:#B2C4CC;}
	.st50{fill:#83D839;}
	.st51{fill:#B3C6C6;}
	.st52{fill:none;stroke:#33363A;stroke-width:3;stroke-linecap:round;stroke-linejoin:round;stroke-miterlimit:10;}
	.st53{fill:#1A8E1C;}
	.st54{fill:#1A93D6;}
	.st55{fill:#B50B0B;}
	.st56{fill:#1AD88F;}
	.st57{fill:#B5DAF4;}
	.st58{fill:#EA7B1F;}
	.st59{fill:#EA81BD;}
	.st60{fill:#87B8D6;}
	.st61{fill:#87C3F4;}
	.st62{fill:#EAC79D;}
	.st63{fill:#EADF11;}
	.st64{fill:#EAE4C5;}
	.st65{fill:#B78094;}
	.st66{fill:#8844D8;}
	.st67{fill:#EBF4F7;}
	.st68{fill:#893015;}
	.st69{fill:#89410B;}
	.st70{fill:#899BA3;}
	.st71{fill:#EDE3B9;}
	.st72{enable-background:new    ;}
	.st73{fill:#50FF9F;}
	.st74{fill:#EEDCF4;}
	.st75{fill:#EFA37D;}
	.st76{fill:#EFA3CC;}
	.st77{fill:#EFC99A;}
	.st78{fill:#54AF79;}
	.st79{fill:#BA503A;}
	.st80{fill:#BA8663;}
	.st81{fill:#8B4FE0;}
	.st82{fill:#58ED9B;}
	.st83{fill:#BC7DFF;}
	.st84{fill:#8D9AA3;}
	.st85{fill:#BCCAD3;}
	.st86{fill:#8DE4FF;}
	.st87{fill:#20B518;}
	.st88{fill:#BF44F2;}
	.st89{fill:#21CEA1;}
	.st90{fill:#BFDAE0;}
	.st91{fill:#F0FBFC;}
	.st92{fill:#F2D9A7;}
	.st93{fill:#F2EAC9;}
	.st94{fill:#24D1AF;}
	.st95{fill:#25931C;}
	.st96{fill:#F4C4B3;}
	.st97{fill:#F4D3A2;}
	.st98{fill:#F4D647;}
	.st99{fill:#F4D7B8;}
	.st100{fill:#F4EC8E;}
	.st101{fill:#5B524D;}
	.st102{fill:#F77819;}
	.st103{fill:#F79AE1;}
	.st104{fill:#5E707A;}
	.st105{fill:#F93585;}
	.st106{fill:#F95D5D;}
	.st107{fill:#F9C19B;}
	.st108{fill:#F9CB58;}
	.st109{fill:#F9D2B2;}
	.st110{fill:#F9F07D;}
	.st111{fill:#F9F1D2;}
	.st112{fill:#F9F4B7;}
	.st113{fill:#F9F9E4;}
	.st114{fill:#5F1DAA;}
	.st115{fill:#5F9AD6;}
	.st116{fill:#C0C0C4;}
	.st117{fill:#91EA57;}
	.st118{fill:#C12727;}
	.st119{fill:#C191A0;}
	.st120{fill:#923BB7;}
	.st121{fill:#93A0A3;}
	.st122{fill:#93F9EA;}
	.st123{fill:#93FF5A;}
	.st124{fill:#C4833D;}
	.st125{fill:#95A2A5;}
	.st126{fill:#965514;}
	.st127{fill:#96562C;}
	.st128{fill:#2AF42F;}
	.st129{fill:#C5D7DD;}
	.st130{fill:#C68510;}
	.st131{fill:#C6A86D;}
	.st132{fill:#C6BB8D;}
	.st133{fill:#2C9DCE;}
	.st134{fill:#FBFCF2;}
	.st135{fill:#FC70B0;}
	.st136{fill:#FCE6C8;}
	.st137{fill:#FCF7E3;}
	.st138{fill:#C90D6B;}
	.st139{fill:#FDFEFF;}
	.st140{fill:#FDFFDC;}
	.st141{fill:#FF1A1A;}
	.st142{fill:#FF5252;}
	.st143{fill:#FF5B00;}
	.st144{fill:#FF6155;}
	.st145{fill:#FF630D;}
	.st146{fill:#FF6666;}
	.st147{fill:#FF7676;}
	.st148{fill:#FF7900;}
	.st149{fill:#FF860D;}
	.st150{fill:#FF8B00;}
	.st151{fill:#FF8F8F;}
	.st152{fill:#FF900B;}
	.st153{fill:#FF908A;}
	.st154{fill:#FF960B;}
	.st155{fill:#FF9C0D;}
	.st156{fill:#FFA9D4;}
	.st157{fill:#FFAA00;}
	.st158{fill:#FFAD40;}
	.st159{fill:#FFAF10;}
	.st160{fill:#FFB000;}
	.st161{fill:#FFBE08;}
	.st162{fill:#FFBF31;}
	.st163{fill:#FFC200;}
	.st164{fill:#FFCAE8;}
	.st165{fill:#FFCCF5;}
	.st166{fill:#FFD00B;}
	.st167{fill:#FFD039;}
	.st168{fill:#FFD400;}
	.st169{fill:#FFD833;}
	.st170{fill:#FFDB80;}
	.st171{fill:#FFDDD2;}
	.st172{fill:#FFE6D4;}
	.st173{fill:#FFE6EB;}
	.st174{fill:#FFE98D;}
	.st175{fill:#FFECD2;}
	.st176{fill:#FFF1D9;}
	.st177{fill:#FFF24D;}
	.st178{fill:#FFF3C2;}
	.st179{fill:#FFF4C7;}
	.st180{fill:#FFF800;}
	.st181{fill:#FFF80D;}
	.st182{fill:#FFF9DE;}
	.st183{fill:#FFFBD7;}
	.st184{fill:#FFFBEB;}
	.st185{fill:#FFFCC0;}
	.st186{fill:#FFFCDC;}
	.st187{fill:#FFFFFA;}
	.st188{fill:#FFFFFF;}
	.st189{fill:#63797F;}
	.st190{fill:#65E529;}
	.st191{fill:#66310E;}
	.st192{fill:#663C17;}
	.st193{fill:#9A5AE5;}
	.st194{fill:#CA30EF;}
	.st195{fill:#6892FC;}
	.st196{fill:#9CFFC4;}
	.st197{fill:#CC4306;}
	.st198{fill:#CC549E;}
	.st199{fill:#9E3256;}
	.st200{fill:#CDFFBB;}
	.st201{fill:#CE86AF;}
	.st202{fill:#CED9DD;}
	
		.st203{fill:none;stroke:#33363A;stroke-width:3;stroke-linecap:round;stroke-linejoin:round;stroke-miterlimit:10;stroke-dasharray:6;}
	.st204{fill:#CFE1E2;}
	.st205{fill:#33363A;}
	.st206{fill:#34C166;}
	.st207{fill:#364B5B;}
	.st208{fill:#3662CE;}
	.st209{fill:#36C6FF;}
	.st210{fill:#6ADB9A;}
	.st211{fill:#6D5C4D;}
	.st212{fill:#6EBDF9;}
	.st213{fill:#0031FF;}
	.st214{fill:#0062FF;}
	.st215{fill:#0068FF;}
	.st216{fill:#0086FF;}
	.st217{fill:#009BE8;}
	.st218{fill:#00AAFF;}
	.st219{fill:#D271FF;}
	.st220{fill:#D363A9;}
	.st221{fill:#D3964C;}
	.st222{fill:#D3DFE2;}
	.st223{fill:#D3E0E2;}
	.st224{fill:#D3EFF4;}
	.st225{fill:#063B66;}
	.st226{fill:#D60909;}
	.st227{fill:#D61D1D;}
	.st228{fill:#D7F0FF;}
	.st229{fill:#09B285;}
	.st230{fill:#D8D593;}
	.st231{fill:#D8E2EA;}
	.st232{fill:#D8E5EA;}
	.st233{fill:#3E5054;}
	.st234{fill:#D988FF;}
	.st235{fill:#D9E7E8;}
	.st236{fill:#702252;}
	.st237{fill:#70D3E0;}
	.st238{fill:#A02FF2;}
	.st239{fill:#A2F255;}
	.st240{fill:#A35616;}
	.st241{fill:#A3CCCC;}
	.st242{fill:#0A6ADD;}
	.st243{fill:#A5145D;}
	.st244{fill:#A57555;}
	.st245{fill:#77D6FC;}
	.st246{fill:#7815CE;}
	.st247{fill:#A7BBC1;}
	.st248{fill:#DBD279;}
	.st249{fill:#0D5C9E;}
	.st250{fill:#A83C11;}
	.st251{fill:#A8633D;}
	.st252{fill:#A8A3E5;}
	.st253{fill:#DCE6EA;}
	.st254{fill:#DCE7EA;}
	.st255{fill:#A962E8;}
	.st256{fill:#DD2466;}
	.st257{fill:#DDC38A;}
	.st258{fill:#DDD2B1;}
	.st259{fill:#DFE7E8;}
	.st260{fill:#42B1E8;}
	.st261{fill:#436377;}
	.st262{fill:#43B530;}
]]>
</style>
<g>
	<g>
		<g>
			<g>
				<g>
					<path class="st97" d="M116.709,88.255c0,20.676-22.032,37.441-49.209,37.441c-27.178,0-49.209-16.766-49.209-37.441
						c0-20.68,22.031-45.459,49.209-45.459C94.677,42.796,116.709,67.575,116.709,88.255z"/>
				</g>
				<g>
					<path class="st7" d="M116.709,88.255c0,20.676-22.032,37.441-49.209,37.441c-27.178,0-49.209-16.766-49.209-37.441
						c0-20.68,22.031-34.928,49.209-34.928C94.677,53.327,116.709,67.575,116.709,88.255z"/>
				</g>
				<g>
					<path class="st114" d="M116.709,88.255c0,20.676-22.032,37.441-49.209,37.441c-27.178,0-49.209-16.766-49.209-37.441
						c0-20.682,6.261,18.34,49.209,18.34C110.448,106.595,116.709,67.573,116.709,88.255z"/>
				</g>
				<g>
					<path class="st205" d="M67.5,127.196c-27.961,0-50.709-17.469-50.709-38.941c0-21.27,22.62-46.959,50.709-46.959
						c13.041,0,25.772,5.472,35.849,15.406c9.305,9.174,14.86,20.97,14.86,31.553C118.209,109.728,95.461,127.196,67.5,127.196z
						 M67.5,44.296c-26.428,0-47.709,24.048-47.709,43.959c0,19.818,21.402,35.941,47.709,35.941s47.709-16.123,47.709-35.941
						C115.209,68.344,93.928,44.296,67.5,44.296z"/>
				</g>
			</g>
			<g>
				<path class="st66" d="M77.936,100.536c0,1.393-4.691,1.643-10.479,1.643s-10.479-0.25-10.479-1.643
					c0-1.395,4.691-5.037,10.479-5.037S77.936,99.142,77.936,100.536z"/>
			</g>
			<g>
				<g>
					<g>
						<g>
							<polygon class="st114" points="96.836,117.292 119.309,115.763 117.918,106.925 130.633,101.331 123.584,89.36 
								129.879,83.003 112.537,68.63 97.882,83.435 98.743,84.147 89.702,88.124 94.711,96.634 93.596,96.712 							"/>
						</g>
						<g>
							<path class="st205" d="M96.835,118.792c-0.782,0-1.441-0.606-1.495-1.398c-0.056-0.826,0.568-1.542,1.395-1.598l20.838-1.419
								l-1.136-7.219c-0.105-0.673,0.255-1.332,0.878-1.606l11.17-4.914l-6.192-10.517c-0.346-0.586-0.252-1.332,0.227-1.816
								l5.142-5.192L111.58,69.785c-0.638-0.529-0.727-1.475-0.198-2.112c0.529-0.639,1.474-0.726,2.112-0.198l17.343,14.373
								c0.324,0.269,0.521,0.661,0.541,1.082c0.021,0.42-0.136,0.83-0.432,1.129l-5.482,5.536l6.462,10.976
								c0.217,0.369,0.267,0.813,0.135,1.222c-0.132,0.407-0.432,0.739-0.824,0.912l-11.658,5.129l1.211,7.696
								c0.065,0.416-0.047,0.84-0.31,1.169c-0.262,0.329-0.651,0.532-1.07,0.561l-22.473,1.529
								C96.904,118.791,96.869,118.792,96.835,118.792z"/>
						</g>
					</g>
				</g>
				<g>
					<g>
						<g>
							<polygon class="st114" points="38.163,117.292 15.691,115.763 17.083,106.925 4.367,101.331 11.416,89.36 5.121,83.003 
								22.463,68.63 37.118,83.435 36.257,84.147 45.299,88.124 40.29,96.634 41.404,96.712 							"/>
						</g>
						<g>
							<path class="st205" d="M38.164,118.792c-0.034,0-0.069-0.001-0.104-0.004l-22.472-1.529
								c-0.419-0.028-0.808-0.231-1.071-0.561c-0.262-0.329-0.375-0.753-0.309-1.169l1.212-7.696l-11.658-5.129
								c-0.392-0.173-0.692-0.505-0.824-0.912c-0.131-0.408-0.082-0.853,0.135-1.222l6.462-10.976l-5.482-5.536
								C3.759,83.76,3.602,83.35,3.623,82.93c0.021-0.421,0.217-0.813,0.541-1.082l17.343-14.373
								c0.638-0.527,1.584-0.439,2.112,0.198c0.529,0.638,0.44,1.583-0.198,2.112L7.34,83.112l5.142,5.192
								c0.479,0.484,0.572,1.23,0.227,1.816l-6.192,10.517l11.171,4.914c0.623,0.274,0.984,0.934,0.878,1.606l-1.137,7.219
								l20.837,1.419c0.826,0.056,1.451,0.771,1.395,1.598C39.605,118.186,38.946,118.792,38.164,118.792z"/>
						</g>
					</g>
				</g>
			</g>
		</g>
		<g>
			<g>
				<ellipse class="st197" cx="67.5" cy="100.349" rx="12.83" ry="7.928"/>
			</g>
			<g>
				<path class="st250" d="M80.331,100.349c0,4.379-5.745,7.928-12.83,7.928c-7.086,0-12.83-3.549-12.83-7.928
					S60.415,99.3,67.5,99.3C74.585,99.3,80.331,95.97,80.331,100.349z"/>
			</g>
			<g>
				<path class="st205" d="M67.5,109.776c-8.036,0-14.33-4.142-14.33-9.428c0-5.288,6.294-9.43,14.33-9.43s14.33,4.142,14.33,9.43
					C81.831,105.635,75.536,109.776,67.5,109.776z M67.5,93.919c-6.142,0-11.33,2.944-11.33,6.43c0,3.484,5.188,6.428,11.33,6.428
					s11.33-2.943,11.33-6.428C78.831,96.863,73.642,93.919,67.5,93.919z"/>
			</g>
		</g>
		<g>
			<g>
				<polygon class="st66" points="96.372,55.128 86.937,34.134 77.92,38.187 67.5,27.767 57.08,38.187 48.063,34.134 38.628,55.128 
					59.62,64.563 60.088,63.519 67.5,70.931 74.911,63.521 75.379,64.563 				"/>
			</g>
			<g>
				<polygon class="st7" points="77.92,55.769 67.5,45.349 57.08,55.769 48.063,51.716 45.202,58.081 59.62,64.563 60.088,63.519 
					67.5,70.931 74.911,63.521 75.379,64.563 89.797,58.081 86.937,51.716 				"/>
			</g>
			<g>
				<path class="st205" d="M96.373,56.628c-0.573,0-1.119-0.329-1.369-0.885l-8.82-19.626l-7.648,3.438
					c-0.568,0.257-1.235,0.132-1.675-0.308l-9.36-9.359l-9.359,9.359c-0.44,0.438-1.107,0.563-1.675,0.308l-7.648-3.438
					l-8.82,19.626c-0.339,0.756-1.227,1.094-1.983,0.753c-0.756-0.34-1.093-1.228-0.753-1.983l9.435-20.994
					c0.163-0.362,0.463-0.646,0.835-0.787s0.786-0.129,1.147,0.034l8.073,3.629l9.688-9.688c0.586-0.586,1.535-0.586,2.121,0
					l9.689,9.688l8.073-3.629c0.362-0.163,0.775-0.176,1.147-0.034s0.672,0.425,0.835,0.787l9.435,20.994
					c0.34,0.756,0.002,1.644-0.753,1.983C96.787,56.586,96.578,56.628,96.373,56.628z"/>
			</g>
		</g>
		<g>
			<g>
				<g>
					<polygon class="st66" points="51.783,42.308 30.124,36.124 28.434,44.911 14.576,45.86 17.147,59.511 9.069,63.358 
						20.508,82.761 39.315,73.804 38.748,72.843 48.602,72.167 46.776,62.462 47.851,62.767 					"/>
				</g>
				<g>
					<polygon class="st7" points="42.295,55.626 28.436,56.575 31.008,70.228 22.928,74.073 26.398,79.956 39.315,73.804 
						38.748,72.843 48.602,72.167 46.776,62.462 47.851,62.767 50.551,48.716 43.985,46.839 					"/>
				</g>
				<g>
					<path class="st205" d="M20.51,84.261c-0.514,0-1.014-0.264-1.293-0.738L7.777,64.12c-0.214-0.362-0.266-0.798-0.143-1.2
						s0.41-0.734,0.79-0.916l7.035-3.351l-2.357-12.516c-0.079-0.421,0.025-0.855,0.288-1.194c0.262-0.34,0.656-0.55,1.084-0.579
						l12.706-0.871l1.471-7.652c0.08-0.413,0.329-0.774,0.688-0.994c0.357-0.222,0.792-0.283,1.197-0.165l21.659,6.184
						c0.797,0.228,1.258,1.058,1.031,1.854c-0.228,0.796-1.059,1.258-1.854,1.03l-20.084-5.733l-1.38,7.178
						c-0.129,0.669-0.691,1.167-1.371,1.213l-12.174,0.834l2.259,11.992c0.126,0.669-0.214,1.339-0.829,1.632l-6.599,3.143
						L21.8,81.999c0.421,0.714,0.184,1.633-0.53,2.054C21.031,84.194,20.769,84.261,20.51,84.261z"/>
				</g>
			</g>
			<g>
				<g>
					<polygon class="st66" points="83.217,42.308 104.875,36.124 106.565,44.911 120.424,45.86 117.852,59.511 125.931,63.358 
						114.491,82.761 95.684,73.804 96.252,72.843 86.397,72.167 88.223,62.462 87.149,62.767 					"/>
				</g>
				<g>
					<polygon class="st7" points="92.704,55.626 106.564,56.575 103.992,70.228 112.071,74.073 108.602,79.956 95.684,73.804 
						96.252,72.843 86.397,72.167 88.223,62.462 87.149,62.767 84.448,48.716 91.015,46.839 					"/>
				</g>
				<g>
					<path class="st205" d="M114.489,84.261c-0.259,0-0.521-0.066-0.76-0.208c-0.714-0.421-0.951-1.34-0.53-2.054l10.608-17.991
						l-6.6-3.143c-0.615-0.293-0.955-0.963-0.829-1.632l2.26-11.992l-12.175-0.834c-0.679-0.046-1.242-0.544-1.371-1.213
						l-1.38-7.178L83.629,43.75c-0.792,0.228-1.626-0.233-1.854-1.03s0.234-1.627,1.031-1.854l21.658-6.184
						c0.405-0.116,0.839-0.057,1.197,0.165c0.358,0.22,0.608,0.581,0.688,0.994l1.471,7.652l12.707,0.871
						c0.428,0.029,0.822,0.239,1.084,0.579c0.262,0.339,0.367,0.773,0.288,1.194l-2.358,12.516l7.036,3.351
						c0.38,0.182,0.667,0.514,0.79,0.916s0.071,0.838-0.143,1.2l-11.44,19.402C115.503,83.997,115.003,84.261,114.489,84.261z"/>
				</g>
			</g>
		</g>
	</g>
	<g>
		<g>
			<g>
				<g>
					<g>
						<path class="st197" d="M52.415,88.036c0,6.805-5.512,12.312-12.312,12.312c-6.799,0-12.311-5.508-12.311-12.312
							c0-6.799,5.512-12.311,12.311-12.311C46.903,75.726,52.415,81.237,52.415,88.036z"/>
					</g>
					<g>
						<path class="st205" d="M52.415,88.036c0,6.805-5.512,2.543-12.312,2.543c-6.799,0-12.311,4.262-12.311-2.543
							c0-6.799,5.512-12.311,12.311-12.311C46.903,75.726,52.415,81.237,52.415,88.036z"/>
					</g>
					<g>
						<path class="st205" d="M40.102,101.849c-7.615,0-13.811-6.196-13.811-13.812c0-7.615,6.195-13.811,13.811-13.811
							c7.616,0,13.812,6.195,13.812,13.811C53.915,95.652,47.718,101.849,40.102,101.849z M40.102,77.226
							c-5.961,0-10.811,4.85-10.811,10.811c0,5.962,4.85,10.812,10.811,10.812c5.962,0,10.812-4.851,10.812-10.812
							C50.915,82.075,46.064,77.226,40.102,77.226z"/>
					</g>
				</g>
				<g>
					<g>
						<circle class="st188" cx="33.98" cy="84.034" r="5.017"/>
					</g>
					<g>
						<path class="st205" d="M33.979,90.552c-3.593,0-6.516-2.924-6.516-6.518c0-3.592,2.923-6.514,6.516-6.514
							c3.594,0,6.518,2.922,6.518,6.514C40.497,87.628,37.573,90.552,33.979,90.552z M33.979,80.521
							c-1.938,0-3.516,1.576-3.516,3.514c0,1.939,1.577,3.518,3.516,3.518c1.939,0,3.518-1.578,3.518-3.518
							C37.497,82.097,35.918,80.521,33.979,80.521z"/>
					</g>
				</g>
			</g>
			<g>
				<g>
					<g>
						<path class="st197" d="M107.208,88.036c0,6.805-5.512,12.312-12.311,12.312c-6.801,0-12.312-5.508-12.312-12.312
							c0-6.799,5.512-12.311,12.312-12.311C101.696,75.726,107.208,81.237,107.208,88.036z"/>
					</g>
					<g>
						<path class="st205" d="M107.208,88.036c0,6.805-5.512,2.543-12.311,2.543c-6.801,0-12.312,4.262-12.312-2.543
							c0-6.799,5.512-12.311,12.312-12.311C101.696,75.726,107.208,81.237,107.208,88.036z"/>
					</g>
					<g>
						<path class="st205" d="M94.897,101.849c-7.616,0-13.812-6.196-13.812-13.812c0-7.615,6.196-13.811,13.812-13.811
							c7.615,0,13.811,6.195,13.811,13.811C108.708,95.652,102.512,101.849,94.897,101.849z M94.897,77.226
							c-5.962,0-10.812,4.85-10.812,10.811c0,5.962,4.851,10.812,10.812,10.812c5.961,0,10.811-4.851,10.811-10.812
							C105.708,82.075,100.858,77.226,94.897,77.226z"/>
					</g>
				</g>
				<g>
					<g>
						<circle class="st188" cx="88.774" cy="84.034" r="5.016"/>
					</g>
					<g>
						<path class="st205" d="M88.774,90.552c-3.593,0-6.516-2.924-6.516-6.518c0-3.592,2.923-6.514,6.516-6.514
							s6.516,2.922,6.516,6.514C95.29,87.628,92.367,90.552,88.774,90.552z M88.774,80.521c-1.938,0-3.516,1.576-3.516,3.514
							c0,1.939,1.577,3.518,3.516,3.518s3.516-1.578,3.516-3.518C92.29,82.097,90.712,80.521,88.774,80.521z"/>
					</g>
				</g>
			</g>
		</g>
	</g>
	<g>
		<g>
			<g>
				<polyline class="st193" points="84.094,61.247 85.266,14.886 67.966,55.37 				"/>
			</g>
			<g>
				<polyline class="st7" points="84.094,74.13 85.266,27.767 67.966,68.251 				"/>
			</g>
			<g>
				<path class="st205" d="M84.095,62.747c-0.013,0-0.025,0-0.039,0c-0.828-0.021-1.482-0.71-1.461-1.538l0.974-38.534L69.346,55.96
					c-0.326,0.762-1.208,1.116-1.969,0.789c-0.762-0.325-1.116-1.206-0.79-1.969l17.3-40.484c0.283-0.661,0.997-1.03,1.699-0.876
					c0.703,0.153,1.198,0.784,1.18,1.504l-1.172,46.361C85.573,62.101,84.906,62.747,84.095,62.747z"/>
			</g>
		</g>
		<g>
			<g>
				<polyline class="st193" points="50.907,61.247 49.733,14.886 67.034,55.37 				"/>
			</g>
			<g>
				<polyline class="st7" points="50.907,74.13 49.733,27.767 67.034,68.251 				"/>
			</g>
			<g>
				<path class="st205" d="M50.906,62.747c-0.811,0-1.479-0.646-1.499-1.462l-1.174-46.361c-0.018-0.72,0.477-1.351,1.18-1.504
					c0.705-0.153,1.416,0.215,1.699,0.876L68.413,54.78c0.326,0.762-0.028,1.644-0.79,1.969c-0.761,0.329-1.643-0.027-1.969-0.789
					L51.431,22.676l0.976,38.533c0.021,0.828-0.633,1.517-1.461,1.538C50.932,62.747,50.919,62.747,50.906,62.747z"/>
			</g>
		</g>
	</g>
	<g>
		<g>
			<g>
				<path class="st205" d="M44.309,40.659c-0.829,0-1.5-0.672-1.5-1.5c0-15.636-12.719-28.355-28.354-28.355
					c-0.829,0-1.5-0.672-1.5-1.5s0.671-1.5,1.5-1.5c17.289,0,31.354,14.066,31.354,31.355
					C45.809,39.987,45.138,40.659,44.309,40.659z"/>
			</g>
			<g>
				<path class="st205" d="M14.331,15.272c-1.93,0-3.5-1.645-3.5-3.666c0-2.022,1.57-3.668,3.5-3.668s3.5,1.646,3.5,3.668
					C17.831,13.628,16.26,15.272,14.331,15.272z M14.331,10.938c-0.271,0-0.5,0.306-0.5,0.668c0,0.361,0.229,0.666,0.5,0.666
					s0.5-0.305,0.5-0.666C14.831,11.244,14.602,10.938,14.331,10.938z"/>
			</g>
		</g>
		<g>
			<g>
				<path class="st205" d="M90.692,40.659c-0.829,0-1.5-0.672-1.5-1.5c0-17.289,14.065-31.355,31.354-31.355
					c0.829,0,1.5,0.672,1.5,1.5s-0.671,1.5-1.5,1.5c-15.634,0-28.354,12.72-28.354,28.355
					C92.192,39.987,91.521,40.659,90.692,40.659z"/>
			</g>
			<g>
				<path class="st205" d="M120.669,15.272c-1.93,0-3.5-1.645-3.5-3.666c0-2.022,1.57-3.668,3.5-3.668s3.5,1.646,3.5,3.668
					C124.169,13.628,122.599,15.272,120.669,15.272z M120.669,10.938c-0.271,0-0.5,0.306-0.5,0.668c0,0.361,0.229,0.666,0.5,0.666
					s0.5-0.305,0.5-0.666C121.169,11.244,120.94,10.938,120.669,10.938z"/>
			</g>
		</g>
	</g>
	<g>
		<g>
			<g>
				<polyline class="st188" points="64.915,106.39 61.561,113.718 58.209,106.39 				"/>
			</g>
			<g>
				<path class="st205" d="M61.561,115.218L61.561,115.218c-0.587,0-1.12-0.343-1.364-0.876l-3.352-7.328
					c-0.344-0.754-0.013-1.644,0.74-1.988c0.754-0.347,1.643-0.013,1.988,0.74l1.988,4.347l1.989-4.347
					c0.344-0.753,1.234-1.086,1.988-0.74c0.753,0.345,1.084,1.235,0.74,1.988l-3.354,7.328
					C62.681,114.876,62.148,115.218,61.561,115.218z"/>
			</g>
		</g>
		<g>
			<g>
				<polyline class="st188" points="76.792,106.39 73.438,113.718 70.086,106.39 				"/>
			</g>
			<g>
				<path class="st205" d="M73.438,115.218L73.438,115.218c-0.587,0-1.12-0.343-1.364-0.876l-3.352-7.328
					c-0.344-0.754-0.013-1.644,0.74-1.988c0.754-0.347,1.643-0.013,1.988,0.74l1.988,4.347l1.989-4.347
					c0.344-0.753,1.234-1.086,1.988-0.74c0.753,0.345,1.084,1.235,0.74,1.988l-3.354,7.328
					C74.558,114.876,74.025,115.218,73.438,115.218z"/>
			</g>
		</g>
	</g>
</g>
</svg>
